<?xml version="1.0" standalone="no"?>
<!DOCTYPE svg PUBLIC "-//W3C//DTD SVG 1.1//EN" "http://www.w3.org/Graphics/SVG/1.1/DTD/svg11.dtd" >
<svg xmlns="http://www.w3.org/2000/svg" xmlns:xlink="http://www.w3.org/1999/xlink" version="1.1">
<metadata>
Created by FontForge 20170731 at Thu Nov  9 17:48:48 2023
 By Aleksey,,,
Copyright (c) 1990 Adobe Systems Incorporated. All rights reserved. Digitized data (c) 1992 The Monotype Corporation. All rights reserved.
</metadata>
<defs>
<font id="AmasisMTStd-Black" horiz-adv-x="1366" >
  <font-face 
    font-family="Amasis MT Std Black"
    font-weight="900"
    font-stretch="normal"
    units-per-em="2048"
    panose-1="2 4 10 2 5 3 4 2 2 3"
    ascent="1638"
    descent="-410"
    x-height="1026"
    cap-height="1432"
    bbox="-391 -489 2707 1993"
    underline-thickness="102"
    underline-position="-307"
    unicode-range="U+0020-FB02"
  />
<missing-glyph horiz-adv-x="1024" 
d="M25 0v1362h972v-1362h-972zM180 1266l332 -498l330 498h-662zM123 1178v-992q0 -1 82.5 123t164.5 249l83 124zM901 1178l-332 -496l332 -498v994zM842 98l-330 496l-332 -496h662z" />
    <glyph glyph-name="fi" unicode="fi" 
d="M1147 1384v-245h-287q-1 13 -2.5 21.5t-9.5 26.5t-21 29.5t-39.5 21t-62.5 9.5q-38 0 -66.5 -9.5t-45.5 -29.5t-27.5 -38t-15 -49t-5.5 -47.5t-2 -47.5h645v-729q0 -21 2 -32t9 -25t25.5 -20.5t47.5 -6.5h31v-213h-592v213h27q26 0 41.5 6t21.5 21t7 26.5t1 36.5v361
q0 27 -1 39t-5 27.5t-14 21t-27.5 10t-44.5 4.5h-174v-463q0 -57 16.5 -71t77.5 -19v-213h-610v213h43q61 0 77.5 17.5t16.5 72.5v463h-137v260h137q3 168 49 246q59 106 187 156.5t287 50.5q96 0 187 -17t140.5 -34t112.5 -44z" />
    <glyph glyph-name="fl" unicode="fl" 
d="M1208 1479v-1178q0 -61 19 -74.5t98 -13.5v-213h-594v213q66 2 82 15.5t16 72.5v465h-268v-465q0 -58 15.5 -72.5t82.5 -15.5v-213h-612v213h51q30 0 48 5.5t25.5 19.5t9 26t1.5 37v465h-135v260h135q1 21 -1 48.5t3 59t10 65.5t21 67.5t36 64.5t54 58t76 47t102 31.5
t131 11.5q63 0 120 -9.5t74 -15t58 -20.5zM561 1026h268v43q0 28 -1 44t-8 43.5t-20 42.5t-40 27.5t-66 12.5q-38 0 -65 -13t-39.5 -29t-19.5 -43.5t-8 -43t-1 -41.5v-43z" />
    <glyph glyph-name=".notdef" horiz-adv-x="1024" 
d="M25 0v1362h972v-1362h-972zM180 1266l332 -498l330 498h-662zM123 1178v-992q0 -1 82.5 123t164.5 249l83 124zM901 1178l-332 -496l332 -498v994zM842 98l-330 496l-332 -496h662z" />
    <glyph glyph-name=".notdef" horiz-adv-x="1024" 
d="M25 0v1362h972v-1362h-972zM180 1266l332 -498l330 498h-662zM123 1178v-992q0 -1 82.5 123t164.5 249l83 124zM901 1178l-332 -496l332 -498v994zM842 98l-330 496l-332 -496h662z" />
    <glyph glyph-name=".null" horiz-adv-x="0" 
 />
    <glyph glyph-name="nonmarkingreturn" horiz-adv-x="682" 
 />
    <glyph glyph-name="space" unicode=" " horiz-adv-x="608" 
 />
    <glyph glyph-name="exclam" unicode="!" horiz-adv-x="724" 
d="M172 1442h387v-262l-35 -697h-317l-35 697v262zM362 369q84 0 143.5 -58.5t59.5 -144.5q0 -84 -59.5 -143.5t-143.5 -59.5t-143 59.5t-59 143.5q0 86 59 144.5t143 58.5z" />
    <glyph glyph-name="quotedbl" unicode="&#x22;" horiz-adv-x="1067" 
d="M670 817l-60 299q-12 58 -12 103q0 89 61 138.5t132 49.5q74 0 133 -51.5t59 -132.5q0 -32 -12 -107l-62 -299h-239zM156 817l-60 299q-12 58 -12 103q0 89 60.5 138.5t131.5 49.5q74 0 133.5 -51.5t59.5 -132.5q0 -32 -12 -107l-62 -299h-239z" />
    <glyph glyph-name="numbersign" unicode="#" 
d="M63 1075h285l80 355h277l-80 -355h268l78 355h276l-78 -355h134v-276h-185l-43 -213h228v-277h-281l-80 -350h-276l79 350h-272l-76 -350h-276l74 350h-132v277h189l45 213h-234v276zM840 799h-267l-43 -213h267z" />
    <glyph glyph-name="dollar" unicode="$" horiz-adv-x="1130" 
d="M999 1300v-362h-280v70q0 29 -1 45t-8 42t-20.5 40t-41 25t-66.5 11q-37 0 -65 -12.5t-42.5 -32t-21.5 -39t-7 -38.5q0 -57 42 -95.5t133 -85.5q203 -106 273 -156q119 -86 153 -194q18 -58 18 -133q0 -188 -123 -299q-45 -40 -97.5 -65t-86 -32.5t-88.5 -15.5v-200h-258
v200q-181 28 -310 78v404h291v-64q0 -40 5.5 -69.5t21 -59t48.5 -45.5t83 -16q76 0 110.5 39.5t34.5 93.5q0 26 -3.5 45t-18.5 39t-27.5 32.5t-48.5 35.5t-63 38t-89 49q-194 108 -271 209t-77 222q0 84 35.5 157t99.5 125q37 28 80.5 46.5t69.5 24.5t68 13v109h258v-109
q169 -23 290 -70z" />
    <glyph glyph-name="percent" unicode="%" horiz-adv-x="2027" 
d="M1530 332q0 -113 19.5 -168t72.5 -55q50 0 71 54.5t21 194.5q0 120 -19.5 170t-68.5 50q-53 0 -74.5 -56t-21.5 -190zM1317 1479h289l-897 -1524h-289zM315 1077q0 -112 19.5 -167.5t73.5 -55.5q50 0 71 55t21 195q0 120 -19.5 169.5t-68.5 49.5q-53 0 -75 -56.5
t-22 -189.5zM1260 336q0 397 374 397q81 0 143 -19t100.5 -51t62.5 -80t33 -100t9 -116q0 -38 -1.5 -68.5t-10 -75.5t-22.5 -79t-41.5 -71.5t-65 -61.5t-95.5 -40t-130 -16q-59 0 -107 8.5t-96 34t-80.5 66.5t-52.5 110t-20 162zM45 1081q0 398 375 398q102 0 172 -28
t107 -81t52 -115t15 -143q0 -38 -1.5 -68t-9.5 -75t-22 -79t-41.5 -71.5t-65 -62t-95.5 -40.5t-130 -16q-60 0 -108.5 9t-96 34t-79.5 66.5t-52 110.5t-20 161z" />
    <glyph glyph-name="ampersand" unicode="&#x26;" horiz-adv-x="1599" 
d="M1094 815h424v-215h-54q-25 0 -39.5 -1t-30.5 -11t-24 -17.5t-24 -35.5t-26 -49t-34 -74q-29 -65 -57 -115q24 -22 41 -34t52.5 -25t76.5 -13q49 0 119 17v-234q-82 -34 -149 -41q-33 -4 -71 -4q-93 0 -152 24.5t-132 82.5q-32 -22 -58 -36t-74.5 -33t-116.5 -28.5
t-153 -9.5q-144 0 -232 28.5t-147 80.5q-64 56 -100.5 141.5t-36.5 181.5q0 270 316 434q-117 153 -117 285q0 41 10 81.5t38.5 87t73 81.5t120.5 58.5t174 23.5q75 0 136.5 -14t100.5 -35t69 -51.5t45 -58t24.5 -59t11.5 -50.5t2 -37q0 -58 -19.5 -111.5t-45 -89.5
t-67.5 -73t-68.5 -55t-65.5 -42l196 -250q25 45 40.5 106.5t23.5 188.5zM825 276l-260 334q-34 -27 -54.5 -46t-43.5 -60.5t-23 -85.5q0 -32 11.5 -65.5t35 -64.5t65.5 -51t95 -20q91 0 174 59zM688 956q25 15 43.5 29t42 38t36.5 55t13 67q0 53 -34 82.5t-84 29.5
q-49 0 -82 -33t-33 -81q0 -34 24.5 -80.5t44 -71.5t29.5 -35z" />
    <glyph glyph-name="quotesingle" unicode="'" horiz-adv-x="555" 
d="M156 817l-60 299q-12 58 -12 103q0 89 60.5 138.5t131.5 49.5q74 0 133.5 -51.5t59.5 -132.5q0 -32 -12 -107l-62 -299h-239z" />
    <glyph glyph-name="parenleft" unicode="(" horiz-adv-x="811" 
d="M434 1479h311q-141 -276 -203.5 -498.5t-62.5 -488.5q0 -161 27 -319t72 -285.5t84.5 -214.5t82.5 -162h-311q-342 474 -342 991q0 127 22.5 252t54 219t80 192t85 157.5t84.5 129.5z" />
    <glyph glyph-name="parenright" unicode=")" horiz-adv-x="811" 
d="M377 -489h-311q141 276 203.5 498.5t62.5 488.5q0 161 -27 319t-72 285.5t-84.5 214.5t-82.5 162h311q342 -474 342 -992q0 -127 -22.5 -252t-54 -219t-80 -192t-85 -157.5t-84.5 -129.5z" />
    <glyph glyph-name="asterisk" unicode="*" horiz-adv-x="1173" 
d="M440 1479h289v-101l-16 -221l211 82l92 29l90 -273l-90 -30l-221 -54l147 -186l51 -72l-237 -164l-43 64l-127 207l-137 -207l-46 -64l-231 173l45 63l158 186l-217 54l-92 30l92 273l92 -29l209 -82l-19 221v101z" />
    <glyph glyph-name="plus" unicode="+" 
d="M109 858h411v412h326v-412h411v-326h-411v-411h-326v411h-411v326z" />
    <glyph glyph-name="comma" unicode="," horiz-adv-x="724" 
d="M150 -446v184q19 9 33 16.5t40 27t43.5 42t35 60t24.5 81.5q-81 19 -123.5 75t-42.5 128q0 85 61 144t144 59q94 0 160.5 -77t66.5 -196q0 -74 -25.5 -151t-76 -152t-138.5 -139t-202 -102z" />
    <glyph glyph-name="hyphen" unicode="-" horiz-adv-x="788" 
d="M61 688h666v-350h-666v350z" />
    <glyph glyph-name="hyphen" unicode="&#xad;" horiz-adv-x="788" 
d="M61 688h666v-350h-666v350z" />
    <glyph glyph-name="period" unicode="." horiz-adv-x="724" 
d="M362 373q84 0 144.5 -59.5t60.5 -145.5q0 -85 -60 -145t-145 -60t-144.5 60t-59.5 145q0 88 63 146.5t141 58.5z" />
    <glyph glyph-name="slash" unicode="/" 
d="M1247 1432h-356l-770 -1463h358z" />
    <glyph glyph-name="zero" unicode="0" horiz-adv-x="1216" 
d="M84 674q0 61 2.5 110.5t14.5 129.5t32.5 141.5t62 130.5t97.5 115t143.5 76t196.5 30q142 0 241.5 -48.5t155 -142.5t79.5 -214.5t24 -282.5q0 -67 -3 -122.5t-15 -136.5t-32.5 -144.5t-60.5 -131.5t-93.5 -113t-136.5 -74.5t-186 -29.5q-140 0 -241 42t-170 157
q-56 91 -83.5 204.5t-27.5 303.5zM453 662q0 -166 17 -260.5t50 -132.5t90 -38q41 0 67.5 17.5t48.5 67.5t32 147t10 248q0 163 -15 255t-48 132.5t-91 40.5q-59 0 -92 -37.5t-51 -142.5t-18 -297z" />
    <glyph glyph-name="one" unicode="1" horiz-adv-x="1216" 
d="M596 1407h213v-1100q0 -31 1.5 -44.5t10.5 -28t29.5 -19t56.5 -4.5h74v-211h-711v211h90q61 0 76 19.5t15 76.5v551q0 34 -1.5 50t-10 33t-27.5 22t-52 2l-112 -13v211q59 10 119.5 35.5t125.5 80.5t103 128z" />
    <glyph glyph-name="two" unicode="2" horiz-adv-x="1216" 
d="M1116 440v-440h-1012v293q118 93 197 159t163 146t132.5 144t79.5 134.5t31 135.5q0 60 -32 101.5t-100 41.5q-38 0 -65.5 -14.5t-40.5 -32.5t-20 -48.5t-8 -47.5t-1 -45v-82h-290v352q113 82 222.5 126t258.5 44q213 0 327.5 -100.5t114.5 -280.5q0 -85 -24 -160.5
t-83.5 -163.5t-168 -187.5t-271.5 -217.5v-4h228q52 0 66 15.5t14 72.5v59h282z" />
    <glyph glyph-name="three" unicode="3" horiz-adv-x="1216" 
d="M164 936v340q122 72 220.5 101.5t233.5 29.5q213 0 327 -92.5t114 -261.5q0 -222 -217 -310q237 -77 237 -337q0 -62 -13 -119t-47.5 -117t-87.5 -103.5t-141.5 -71.5t-201.5 -28q-144 0 -249 28t-212 81v377h293v-86q0 -20 1 -33t8 -37.5t19.5 -40t39.5 -27.5t65 -12
q81 0 120.5 52t39.5 124q0 59 -22 100t-58 59.5t-69.5 25.5t-69.5 6v264q100 0 155.5 43t55.5 129q0 43 -13.5 74t-35 46t-42.5 21t-43 6q-42 0 -73.5 -21.5t-46.5 -51.5q-15 -29 -15 -107v-51h-272z" />
    <glyph glyph-name="four" unicode="4" horiz-adv-x="1216" 
d="M647 1407h324v-778h166v-283h-166v-63q0 -44 17 -59t75 -15h61v-209h-667v209h94q48 0 67 16t19 68v53h-565v336zM377 629h270v327h-4z" />
    <glyph glyph-name="five" unicode="5" horiz-adv-x="1216" 
d="M1030 1374v-289h-555l-8 -206q108 45 209 45q58 0 112 -12t109.5 -44t96 -80.5t66 -128t25.5 -180.5q0 -231 -127 -370q-64 -69 -151.5 -105.5t-224.5 -36.5q-262 0 -439 117v360h295v-86q0 -19 1 -32t7.5 -36.5t18 -37.5t36.5 -25.5t60 -11.5q79 0 115.5 65.5
t36.5 170.5q0 23 -1.5 44t-9.5 57.5t-22 62.5t-43 45.5t-68 19.5q-26 0 -46 -6.5t-35 -21.5t-20.5 -22.5t-16.5 -25.5l-287 10l37 760h829z" />
    <glyph glyph-name="six" unicode="6" horiz-adv-x="1216" 
d="M1094 1309v-320h-293q-1 29 -1 41t-2.5 35.5t-6.5 34t-12.5 26t-20 22t-29.5 12t-41 5.5q-49 0 -87.5 -22.5t-61.5 -56t-39 -83t-23 -91t-12 -93.5q41 27 66 41.5t83.5 31.5t124.5 17q62 0 119 -13.5t110.5 -45t92.5 -79.5t62.5 -123t23.5 -169q0 -72 -14.5 -140.5
t-51.5 -137.5t-92.5 -119.5t-145 -82.5t-202.5 -32q-158 0 -262 42.5t-166 131.5q-123 171 -123 475q0 368 160 588q144 203 448 203q128 0 219 -26.5t177 -71.5zM471 444q0 -43 8 -82.5t25 -76.5t49.5 -59.5t77.5 -22.5q39 0 69 15t46.5 41t27.5 51.5t15 58t5 47t1 30.5
q0 15 -1 28.5t-5 44t-14.5 54t-27 48t-45.5 38t-67 13.5q-82 0 -123 -64.5t-41 -163.5z" />
    <glyph glyph-name="seven" unicode="7" horiz-adv-x="1216" 
d="M139 1374h983v-307q-82 -127 -142 -233.5t-124.5 -247.5t-105.5 -296t-54 -315h-344q23 514 439 1092h-277q-28 0 -41 -2t-26.5 -11.5t-18 -30t-4.5 -56.5v-97h-285v504z" />
    <glyph glyph-name="eight" unicode="8" horiz-adv-x="1216" 
d="M307 731q-24 13 -35 20t-37 26t-41 39t-32.5 49.5t-26 69t-8.5 85.5q0 98 38.5 171t90.5 116q60 47 141 73.5t219 26.5q30 0 53.5 -1t76.5 -8t93 -19.5t90 -40t82.5 -64.5t55.5 -97t23 -135q0 -38 -5 -71t-16 -60.5t-20.5 -48t-28.5 -41t-28 -31t-31 -25.5t-27 -18.5
t-25 -15.5q31 -14 49.5 -24t53.5 -38t55.5 -60t37.5 -87.5t17 -122.5q0 -89 -24 -160t-58.5 -115t-87.5 -76t-96 -47t-100.5 -23.5t-83.5 -9.5t-62 -1t-62 1t-84 9t-101.5 23t-97.5 46t-89 74.5t-59.5 112.5t-24.5 156q0 250 215 342zM467 1001q0 -75 37 -118t106 -43
q38 0 66 15.5t41.5 35.5t21.5 47t9.5 42.5t1.5 29.5q0 22 -3 41t-14.5 51.5t-43 52t-79.5 19.5q-73 0 -108 -48t-35 -125zM446 397q0 -103 47 -146.5t117 -43.5q46 0 79 18.5t48.5 41t24 56t9.5 49.5t1 36q0 92 -41 142t-117 50q-43 0 -75.5 -15.5t-49.5 -37.5t-27.5 -52
t-13 -52.5t-2.5 -45.5z" />
    <glyph glyph-name="nine" unicode="9" horiz-adv-x="1216" 
d="M123 68v317h293q0 -37 1 -56t6.5 -46t17 -39.5t33.5 -22.5t54 -10q49 0 87.5 22.5t61.5 55.5t39.5 82.5t23.5 91.5t12 94q-36 -26 -65.5 -42t-87 -32t-122.5 -16q-62 0 -119 13t-110.5 45t-93 80t-63 122.5t-23.5 167.5q0 72 14.5 140.5t51.5 137.5t93 119.5t145.5 82.5
t202.5 32q159 0 262.5 -42t166.5 -132q120 -173 120 -475q0 -370 -157 -588q-149 -203 -449 -203q-90 0 -170 17t-123.5 35.5t-101.5 48.5zM745 932q0 43 -7.5 82.5t-24.5 77t-49.5 60t-77.5 22.5q-34 0 -61 -12t-44 -30t-29.5 -44t-18 -47.5t-9 -48t-4 -39t-0.5 -25.5
t0.5 -23.5t3.5 -35.5t8.5 -44.5t17.5 -43.5t28.5 -40.5t43.5 -27.5t60 -11q82 0 122.5 64.5t40.5 165.5z" />
    <glyph glyph-name="colon" unicode=":" horiz-adv-x="724" 
d="M362 373q84 0 144.5 -59.5t60.5 -145.5q0 -85 -60 -145t-145 -60t-144.5 60t-59.5 145q0 88 63 146.5t141 58.5zM362 1061q84 0 144.5 -59.5t60.5 -145.5q0 -85 -60 -145t-145 -60t-144.5 60t-59.5 145q0 88 63 146.5t141 58.5z" />
    <glyph glyph-name="semicolon" unicode=";" horiz-adv-x="724" 
d="M150 -446v184q19 9 33 16.5t40 27t43.5 42t35 60t24.5 81.5q-81 19 -123.5 75t-42.5 128q0 85 61 144t144 59q94 0 160.5 -77t66.5 -196q0 -74 -25.5 -151t-76 -152t-138.5 -139t-202 -102zM362 1061q84 0 144.5 -59.5t60.5 -145.5q0 -85 -60 -145t-145 -60t-144.5 60
t-59.5 145q0 88 63 146.5t141 58.5z" />
    <glyph glyph-name="semicolon" unicode="&#x37e;" horiz-adv-x="724" 
d="M150 -446v184q19 9 33 16.5t40 27t43.5 42t35 60t24.5 81.5q-81 19 -123.5 75t-42.5 128q0 85 61 144t144 59q94 0 160.5 -77t66.5 -196q0 -74 -25.5 -151t-76 -152t-138.5 -139t-202 -102zM362 1061q84 0 144.5 -59.5t60.5 -145.5q0 -85 -60 -145t-145 -60t-144.5 60
t-59.5 145q0 88 63 146.5t141 58.5z" />
    <glyph glyph-name="less" unicode="&#x3c;" 
d="M1257 74l-1148 471v295l1148 473v-348l-702 -271l702 -268v-352z" />
    <glyph glyph-name="equal" unicode="=" 
d="M109 1102h1148v-326h-1148v326zM109 610h1148v-325h-1148v325z" />
    <glyph glyph-name="greater" unicode="&#x3e;" 
d="M109 1313l1148 -469v-295l-1148 -475v350l702 270l-702 269v350z" />
    <glyph glyph-name="question" unicode="?" horiz-adv-x="1044" 
d="M614 483h-315q4 90 30 169t101 169q97 116 131.5 173t34.5 122q0 41 -30 81t-91 40q-34 0 -58 -12t-36 -29t-19 -44.5t-8.5 -48t-1.5 -50.5v-60h-286v342q195 144 464 144q113 0 198.5 -27.5t130.5 -66t72.5 -89.5t34.5 -88t7 -73q0 -54 -14 -102.5t-41 -89t-48 -65.5
t-51 -55q-51 -51 -76.5 -79t-56.5 -71t-47.5 -88t-24.5 -102zM473 371q85 0 144 -59.5t59 -145.5q0 -84 -59.5 -143.5t-143.5 -59.5q-86 0 -145.5 59.5t-59.5 143.5q0 85 60 145t145 60z" />
    <glyph glyph-name="at" unicode="@" horiz-adv-x="2004" 
d="M1784 18h207q-61 -124 -159.5 -213.5t-218.5 -139.5t-245 -72.5t-262 -22.5q-92 0 -181 9t-202 37.5t-208.5 74t-188.5 127.5t-154 190q-119 209 -119 471q0 156 40.5 302t126 275.5t206 226t291.5 152.5t373 56q196 0 358 -60.5t268 -165t163.5 -243t57.5 -295.5
q0 -139 -49.5 -271t-134.5 -232.5t-208.5 -162t-262.5 -61.5q-93 0 -133.5 30t-54.5 85q-115 -115 -275 -115q-164 0 -272.5 115t-108.5 313q0 82 21.5 170.5t67 175t107.5 155.5t151.5 111.5t191.5 42.5q182 0 266 -135l25 111h262l-150 -717q-14 -68 -14 -88q0 -14 4 -24
t9 -14.5t11.5 -7t9.5 -3t5 -0.5q29 0 72.5 23t92 70t90.5 108.5t69.5 148.5t27.5 180q0 177 -88.5 310.5t-241.5 202.5t-348 69q-200 0 -361 -68t-263 -184t-156.5 -266.5t-54.5 -319.5q0 -356 245 -559q70 -58 162.5 -96.5t184.5 -53.5t148 -19.5t108 -4.5q103 0 197 13
t189 42t175 84.5t131 132.5zM696 430q0 -47 9 -88t28.5 -78.5t56.5 -59.5t87 -22q68 0 123.5 38.5t89 95.5t57 126.5t32.5 127t9 100.5q0 13 -1.5 29t-7 45.5t-18.5 55t-32 50t-52.5 39t-75.5 14.5q-66 0 -120 -35.5t-87.5 -89.5t-56.5 -120t-32 -123.5t-9 -104.5z" />
    <glyph glyph-name="A" unicode="A" horiz-adv-x="1492" 
d="M545 1448h413l361 -1075q30 -90 55 -116t74 -26h29v-231h-650v231h45q62 0 62 39q0 11 -6.5 36t-9.5 30l-15 49h-381l-14 -47q-14 -38 -14 -64q0 -15 9 -24.5t26 -13t28.5 -4.5t30.5 -1v-231h-572v231q68 0 95.5 21t54.5 98zM715 1063l-140 -414h279l-135 414h-4z" />
    <glyph glyph-name="B" unicode="B" horiz-adv-x="1429" 
d="M82 1432h727q19 0 34.5 -0.5t50.5 -4t64 -9.5t68.5 -18.5t70 -30t63 -45.5t54 -63t35 -84.5t13.5 -107.5q0 -214 -191 -309q272 -77 272 -346q0 -237 -180 -351q-100 -63 -282 -63h-799v231h41q63 0 79.5 15.5t16.5 72.5v791q0 27 -1.5 39t-10 26.5t-29 19.5t-55.5 5h-41
v232zM606 1159v-289h107q76 0 118.5 31.5t42.5 116.5q0 38 -11.5 65.5t-27.5 41.5t-40.5 22.5t-42 10t-39.5 1.5h-107zM606 602v-328h127q31 0 52.5 1.5t51.5 10.5t48 25.5t31.5 48t13.5 76.5q0 46 -15 78.5t-35.5 49t-53.5 26t-56.5 11t-56.5 1.5h-107z" />
    <glyph glyph-name="C" unicode="C" horiz-adv-x="1449" 
d="M1343 1366v-467h-335v113q0 32 -2 53.5t-12.5 55t-29.5 54t-57 36.5t-92 16q-60 0 -109 -19.5t-81 -50t-56.5 -74t-37.5 -85t-21 -90t-10 -82.5t-2 -68q0 -74 10 -138.5t37.5 -128t70.5 -108.5t114 -72.5t163 -27.5q216 0 442 143v-320q-112 -72 -232.5 -111.5
t-297.5 -39.5q-121 0 -223 27t-173.5 72.5t-128 108.5t-91 130.5t-56.5 144t-30.5 143.5t-8.5 134q0 121 26 231t84 208.5t143.5 170t211 113t279.5 41.5q92 0 175 -11.5t151 -33t101 -34.5t78 -34z" />
    <glyph glyph-name="D" unicode="D" horiz-adv-x="1579" 
d="M86 1432h686q191 0 322 -46.5t227 -156.5q168 -194 168 -508q0 -115 -24.5 -219.5t-77 -197t-129.5 -159.5t-188.5 -106t-246.5 -39h-737v231h35q67 0 84.5 16.5t17.5 69.5v787q0 30 -1.5 43t-9.5 28t-26.5 20t-50.5 5h-49v232zM610 1149v-873h111q346 0 346 429
q0 85 -12 153t-31 113.5t-48.5 79t-59 52t-67.5 29.5t-68 14t-68 3h-103z" />
    <glyph glyph-name="E" unicode="E" horiz-adv-x="1323" 
d="M84 1432h1126v-426h-295v69q0 28 -5.5 45t-20 23.5t-25.5 8t-35 1.5h-211v-274h422v-289h-422v-311h220q63 0 82.5 14t19.5 65v84h295v-442h-1151v231h51q59 0 71.5 18t12.5 75v784q0 27 -1.5 39.5t-9 27t-25 20t-48.5 5.5h-51v232z" />
    <glyph glyph-name="F" unicode="F" horiz-adv-x="1280" 
d="M86 1432h1137v-428h-295v69q0 50 -19.5 64t-66.5 14h-221v-272h395v-289h-395v-275q0 -25 2 -36.5t11 -24.5t30.5 -18t58.5 -5h61v-231h-698v231h41q35 0 55.5 4.5t29 17.5t10 24.5t1.5 37.5v787q0 58 -16.5 78t-79.5 20h-41v232z" />
    <glyph glyph-name="G" unicode="G" horiz-adv-x="1579" 
d="M1372 1368v-459h-330v82q0 24 -0.5 37t-4 40t-11 43.5t-22 38t-35.5 34t-54 21.5t-75 9q-149 0 -238.5 -123.5t-89.5 -363.5q0 -473 348 -473q65 0 133 22v158q0 19 -1.5 28.5t-8.5 22t-25 18t-47 5.5h-57v231h649v-231h-55q-25 0 -41 -5t-25 -11.5t-13 -22t-4.5 -26.5
t-0.5 -35v-340q-247 -113 -518 -113q-206 0 -335.5 50t-221.5 149q-191 212 -191 544q0 122 26 233t84.5 212t145.5 175t216.5 117.5t289.5 43.5q298 0 512 -111z" />
    <glyph glyph-name="H" unicode="H" horiz-adv-x="1622" 
d="M86 1432h647v-232q-71 0 -91.5 -14.5t-20.5 -73.5v-199h383v199q0 36 -5.5 52t-29 26t-74.5 10v232h641v-232h-35q-64 0 -83 -14t-19 -68v-803q0 -49 17 -66.5t77 -17.5h43v-231h-641v231q72 0 90.5 15t18.5 69v293h-383v-303q0 -42 20 -58t92 -16v-231h-647v231h47
q34 0 53 4.5t27.5 20t10 29.5t1.5 47v770q0 23 -0.5 34t-5 26t-14 21.5t-27.5 11.5t-45 5h-47v232z" />
    <glyph glyph-name="I" unicode="I" horiz-adv-x="831" 
d="M78 1432h676v-232h-54q-56 0 -70 -21.5t-14 -80.5v-785q0 -44 17 -63t76 -19h45v-231h-676v231h47q33 0 52 4.5t27 18.5t9.5 26.5t1.5 43.5v788q0 28 -1.5 40t-10.5 25.5t-29 18t-55 4.5h-41v232z" />
    <glyph glyph-name="J" unicode="J" horiz-adv-x="1153" 
d="M393 1432h692v-232h-51q-58 0 -73 -20.5t-15 -71.5v-616q0 -52 -1.5 -87.5t-11 -96.5t-27 -104t-52.5 -93.5t-84 -81.5t-126 -52.5t-173 -21.5q-216 0 -397 76v379h266q0 -35 0.5 -52.5t6 -45.5t15.5 -42.5t30.5 -25.5t49.5 -11q33 0 54.5 12.5t33 38t15.5 55t4 71.5v698
q0 29 -1.5 41.5t-9.5 26.5t-26.5 19t-50.5 5h-68v232z" />
    <glyph glyph-name="K" unicode="K" horiz-adv-x="1536" 
d="M88 1432h637v-232q-52 0 -75 -9t-28.5 -26t-5.5 -59v-309h5l233 286q47 58 47 80q0 37 -57 37v232h616v-232q-30 0 -49.5 -3t-50.5 -19.5t-57 -49.5l-314 -383l340 -403q31 -38 60 -61.5t56.5 -33.5t44 -12.5t42.5 -3.5v-231h-723v231q59 0 59 37q0 24 -39 74l-208 281
h-5v-304q0 -25 1.5 -36.5t7.5 -25.5t21.5 -19.5t41.5 -6.5v-231h-600v231h53q32 0 50 4.5t25.5 18t9 25.5t1.5 40v787q0 28 -1.5 40.5t-9 27.5t-26 20.5t-49.5 5.5h-53v232z" />
    <glyph glyph-name="L" unicode="L" horiz-adv-x="1259" 
d="M80 1432h692v-232h-67q-33 0 -52 -5.5t-27.5 -20t-10 -26.5t-1.5 -38v-834h201q32 0 51.5 5.5t27.5 19t9.5 24t1.5 31.5v113h295v-469h-1120v231h53q31 0 49.5 6t26 20t9 25t1.5 33v789q0 32 -1.5 45t-10.5 27.5t-28.5 19t-55.5 4.5h-43v232z" />
    <glyph glyph-name="M" unicode="M" horiz-adv-x="2068" 
d="M84 1432h772q132 -492 176 -687h4q7 42 76 301t109 386h764v-232q-68 0 -88 -2.5t-33 -13.5q-10 -12 -12.5 -27.5t-2.5 -73.5v-737q0 -30 0.5 -43t3.5 -29.5t8.5 -22t18 -12t28.5 -7.5t42 -1h35v-231h-654v231h35q28 0 46 4.5t28 10t14 20.5t5 26.5t1 37.5v870h-4
l-301 -1065h-291l-284 1065h-5v-870q0 -64 16.5 -81.5t86.5 -17.5h29v-231h-623v231h33q42 0 62 3t31.5 17t13 30.5t1.5 56.5v764q0 63 -18 80.5t-90 17.5h-33v232z" />
    <glyph glyph-name="N" unicode="N" horiz-adv-x="1579" 
d="M84 1432h592l364 -824h4v496q0 57 -17 76.5t-79 19.5h-35v232h594v-232h-55q-31 0 -48.5 -5t-25 -20t-9 -28t-1.5 -43v-1116h-393l-424 899h-4v-572q0 -24 2 -36t10.5 -25t28 -18t53.5 -5h43v-231h-600v231h41q66 0 82 17.5t16 66.5v789q0 27 -1.5 39.5t-9.5 28t-28 22
t-53 6.5h-47v232z" />
    <glyph glyph-name="O" unicode="O" horiz-adv-x="1642" 
d="M96 709q0 130 29 244.5t89 211.5t147 166.5t210 108.5t271 39q176 0 312.5 -53.5t221.5 -151t128.5 -229t43.5 -291.5q0 -128 -25 -243t-81 -217.5t-139 -177t-206.5 -118t-275.5 -43.5q-348 0 -536.5 203t-188.5 551zM506 705q0 -472 317 -472q162 0 237 124t75 376
q0 463 -308 463q-64 0 -116 -21.5t-86 -60t-58 -85.5t-37 -104.5t-18.5 -110t-5.5 -109.5z" />
    <glyph glyph-name="P" unicode="P" horiz-adv-x="1323" 
d="M80 1432h649q35 0 57.5 -0.5t68 -4.5t78 -11t78.5 -22t78.5 -36t67.5 -54t57 -75t36 -100.5t14 -127.5q0 -82 -22 -151t-57.5 -115t-69 -74.5t-68.5 -46.5q-96 -49 -259 -49h-184v-254q0 -45 15 -62.5t71 -17.5h70v-231h-680v231h59q23 0 38 5t23 11t12 19.5t4.5 23
t0.5 29.5v783q0 30 -1.5 43t-9 28.5t-25 21t-48.5 5.5h-53v232zM604 1171v-346h107q25 0 45 2t47 12t45.5 27t31.5 50t13 79q0 50 -15 85.5t-33.5 52.5t-50 26.5t-49 10.5t-45.5 1h-96z" />
    <glyph glyph-name="Q" unicode="Q" horiz-adv-x="1642" 
d="M1516 -102v-236q-78 -8 -146 -8q-99 0 -182 8.5t-190.5 34t-213 82.5t-200.5 143q-19 17 -34 33.5t-30 34t-24 26.5q-163 71 -244 185q-156 187 -156 508q0 166 48 306t140 244t235 162t323 58q143 0 260.5 -36.5t199.5 -101.5t138 -156.5t82 -199t26 -231.5
q0 -65 -7.5 -131t-26 -146.5t-58 -159.5t-96.5 -141q-98 -119 -283 -184q140 -99 439 -94zM506 705q0 -78 8.5 -143.5t30.5 -128t57 -106t91.5 -69.5t129.5 -25q86 9 142.5 39t95.5 93q74 109 74 370q0 35 -1.5 65.5t-8 80t-18.5 89.5t-35 84.5t-54.5 74.5t-80.5 49.5
t-110 19.5q-74 0 -131.5 -29.5t-92.5 -76.5t-57.5 -113t-31 -132.5t-8.5 -141.5z" />
    <glyph glyph-name="R" unicode="R" horiz-adv-x="1449" 
d="M86 1432h670q98 0 172.5 -10.5t138.5 -43.5q51 -27 93.5 -71.5t75 -124t32.5 -176.5q0 -59 -12 -111.5t-27 -85.5t-40.5 -65t-39 -45t-35.5 -31l170 -332q30 -58 60 -81.5t86 -23.5h38v-231h-471l-241 565h-146v-258q0 -47 6 -57q11 -19 64 -19h53v-231h-647v231h53
q30 0 47.5 5t25 17t9.5 22.5t2 31.5v797q0 27 -1.5 40.5t-9.5 28.5t-25.5 21t-47.5 6h-53v232zM610 1169v-344h97q40 0 71 7t60 24.5t45 53t16 87.5q0 172 -192 172h-97z" />
    <glyph glyph-name="S" unicode="S" horiz-adv-x="1236" 
d="M1094 1393v-394h-306v78q0 27 -1 43t-8.5 44.5t-22 44.5t-44 29t-71.5 13q-39 0 -67.5 -12.5t-43 -29t-23 -37.5t-10 -33t-1.5 -21q0 -54 41 -95.5t145 -98.5l139 -74q67 -36 109 -62t91 -67.5t76 -83t45.5 -102t18.5 -132.5q0 -197 -137 -323q-64 -59 -159 -92t-253 -33
q-267 0 -495 84v438h317v-69q0 -23 1 -38t5 -43t15 -47t28.5 -39t48 -30t70.5 -10q82 0 121 43.5t39 103.5q0 62 -36.5 106.5t-111.5 84.5q-8 5 -60 33.5t-60 33.5q-204 113 -290.5 221t-86.5 244q0 95 39 174t108 133q126 101 371 101t459 -86z" />
    <glyph glyph-name="T" unicode="T" horiz-adv-x="1492" 
d="M59 1432h1375v-474h-297v109q0 59 -11.5 72.5t-70.5 13.5h-111v-831q0 -55 16 -73t80 -18h60v-231h-711v231h68q19 0 31 1.5t28 6.5t24.5 18.5t8.5 35.5v860h-113q-57 0 -68.5 -13t-11.5 -73v-109h-297v474z" />
    <glyph glyph-name="U" unicode="U" horiz-adv-x="1579" 
d="M63 1432h676v-232h-51q-61 0 -74.5 -20t-13.5 -82v-570q0 -29 0.5 -45.5t4.5 -48.5t11.5 -52t23.5 -45t38 -39.5t57.5 -25t79.5 -10.5q40 0 72.5 7.5t54.5 23t38.5 31.5t26 40.5t15.5 42.5t8.5 45t3 40.5t0.5 35.5v570q0 30 -1.5 43.5t-9 30t-26 22.5t-49.5 6h-51v232
h619v-232h-48q-62 0 -75 -18t-13 -76v-578q0 -62 -5 -115t-20.5 -113.5t-41 -108.5t-69.5 -93.5t-102.5 -75.5t-143 -48.5t-189.5 -18.5q-298 0 -453 131.5t-155 425.5v594q0 26 -1.5 38.5t-8.5 28t-24 21.5t-46 6h-58v232z" />
    <glyph glyph-name="V" unicode="V" horiz-adv-x="1492" 
d="M16 1432h658v-232h-41q-13 0 -21.5 -1t-20.5 -4.5t-18 -13t-6 -24.5q0 -11 6 -35q1 -2 5.5 -15t5.5 -15l192 -631h4l197 620q14 44 14 68q0 51 -65 51h-29v232h580v-232h-29q-27 0 -46.5 -8.5t-33.5 -29.5t-20.5 -35t-18.5 -46l-391 -1089h-393l-377 1077q0 5 -8 21
q-22 61 -42 85.5t-63 24.5h-39v232z" />
    <glyph glyph-name="W" unicode="W" horiz-adv-x="2068" 
d="M18 1432h650v-232h-41q-66 0 -66 -49q0 -13 6 -43l109 -559h4l199 883h383l178 -883h4l125 530q10 33 10 68q0 19 -6.5 30.5t-19.5 16t-21 5.5t-21 1h-26v232h565v-232q-66 0 -95 -25.5t-52 -105.5l-314 -1069h-379l-176 801h-4l-186 -801h-387l-271 1020
q-33 119 -54.5 149.5t-76.5 30.5h-37v232z" />
    <glyph glyph-name="X" unicode="X" horiz-adv-x="1492" 
d="M86 1432h625v-232q-31 0 -31 -22q0 -6 4 -16.5t8 -17.5l4 -7q6 -12 15 -21l63 -98l68 86q0 1 9.5 14.5t17.5 29.5t8 26q0 26 -29 26v232h565v-232q-25 0 -37.5 -1t-32.5 -6t-35 -16t-36 -31.5t-45 -51.5l-266 -338l284 -404q30 -44 56 -70t51.5 -36.5t41.5 -12.5t46 -2
v-231h-647v231q41 0 41 33q0 19 -17 49q-7 4 -16 21l-78 115l-72 -97q-1 0 -2.5 -2t-3.5 -5t-4 -5q-1 -1 -6 -9t-12 -16q-27 -35 -27 -53q0 -29 47 -31v-231h-590v231h33q33 0 58.5 10.5t37 21.5t41.5 42q15 15 21 23l295 381l-263 374q-7 7 -14 21q-25 35 -46.5 55.5
t-45.5 29t-39 10t-45 1.5v232z" />
    <glyph glyph-name="Y" unicode="Y" horiz-adv-x="1472" 
d="M23 1432h659v-232h-19.5t-17 -2t-17 -5.5t-9.5 -11t-5 -18.5q0 -20 25 -55l135 -203l129 191q31 48 31 69q0 13 -6.5 21t-20 10.5t-19.5 3t-20 0.5v232h580v-232q-28 0 -40.5 -1.5t-31 -9.5t-33.5 -26.5t-34 -50.5l-375 -547v-256q0 -24 1.5 -34.5t10 -23t28.5 -16.5
t54 -4h53v-231h-694v231h57q34 0 53.5 4.5t28 16.5t10 22.5t1.5 34.5v256l-367 543q-1 1 -3.5 4.5t-4.5 5.5q-31 49 -61.5 65.5t-77.5 16.5v232z" />
    <glyph glyph-name="Z" unicode="Z" 
d="M119 1432h1132v-281l-688 -875h320q69 0 85.5 17t16.5 69v105h295v-467h-1192v276l684 875h-280q-49 0 -63.5 -17.5t-14.5 -64.5v-96h-295v459z" />
    <glyph glyph-name="bracketleft" unicode="[" horiz-adv-x="811" 
d="M150 1432h579v-252h-233v-1356h233v-254h-579v1862z" />
    <glyph glyph-name="backslash" unicode="\" 
d="M121 1432h356l770 -1463h-358z" />
    <glyph glyph-name="bracketright" unicode="]" horiz-adv-x="811" 
d="M82 1180v252h580v-1862h-580v254h233v1356h-233z" />
    <glyph glyph-name="asciicircum" unicode="^" horiz-adv-x="1343" 
d="M532 1479h279l408 -813h-353l-192 491l-195 -491h-354z" />
    <glyph glyph-name="underscore" unicode="_" horiz-adv-x="1024" 
d="M-12 -154h1048v-102h-1048v102z" />
    <glyph glyph-name="grave" unicode="`" horiz-adv-x="681" 
d="M551 1174h-264l-236 264h383z" />
    <glyph glyph-name="a" unicode="a" horiz-adv-x="1236" 
d="M164 680v246q204 129 473 129q70 0 129.5 -9.5t118.5 -34t100 -63t66.5 -102t25.5 -146.5v-340q0 -22 0.5 -33.5t4 -30t10.5 -28t21 -17t34 -7.5q18 0 59 14v-223q-56 -25 -140 -45.5t-142 -20.5q-53 0 -91.5 13t-60 37t-29 38t-16.5 37q-145 -125 -332 -125
q-61 0 -111 13t-82 33t-56 48.5t-36 54.5t-19.5 56t-9 48t-1.5 36q0 55 17.5 103t43 79.5t59 56t59.5 37t50 19.5q145 44 158 47l229 51q0 33 -1 50.5t-7 46.5t-18.5 44t-37 27t-59.5 12q-31 0 -53.5 -10.5t-34 -23.5t-18.5 -37.5t-8.5 -38.5t-3.5 -41h-291zM696 383v102
q-47 -12 -80.5 -23t-67 -27.5t-54 -35t-33 -44.5t-12.5 -58q0 -50 30.5 -82.5t75.5 -32.5q38 0 65.5 17t41.5 39.5t22.5 54t10 51t1.5 39.5z" />
    <glyph glyph-name="b" unicode="b" horiz-adv-x="1300" 
d="M12 1436l520 43v-566h5q101 142 284 142q98 0 174 -39.5t123.5 -109.5t71.5 -161t24 -198q0 -60 -9.5 -121.5t-30 -128t-58 -124t-87.5 -104t-124.5 -73.5t-163.5 -27q-56 0 -104 10.5t-85.5 30.5t-56 33t-44.5 35l-62 -109h-244v1139v7q0 61 -4.5 82t-25.5 28
q-18 7 -103 2v209zM518 481q0 -19 1 -34t4 -47.5t12.5 -56.5t23.5 -49.5t39.5 -39.5t58.5 -14q148 0 148 274q0 240 -135 240q-152 0 -152 -273z" />
    <glyph glyph-name="c" unicode="c" horiz-adv-x="1087" 
d="M1001 973v-385h-286v98q0 26 -2 42.5t-10.5 40t-30 36t-56.5 12.5q-56 0 -95.5 -38t-57 -95t-17.5 -125q0 -76 21 -133t57 -89t78 -47.5t90 -15.5q144 0 297 78v-280q-190 -109 -403 -109q-115 0 -205.5 34.5t-145 88.5t-90.5 125.5t-49.5 139.5t-13.5 138q0 256 147 414
t400 158q192 0 372 -88z" />
    <glyph glyph-name="d" unicode="d" horiz-adv-x="1300" 
d="M625 1438l518 41v-1135q0 -31 0.5 -43.5t3.5 -29t9.5 -22t18.5 -9.5t31 -4q18 0 58 4v-213l-471 -33q-18 51 -25 141h-4q-88 -166 -291 -166q-206 0 -303 150q-94 145 -94 366q0 261 122 418.5t310 157.5q146 0 248 -94v168q0 72 -19 84.5t-112 7.5v211zM483 535
q0 -261 135 -261q36 0 64 15.5t43.5 43t25.5 54t13.5 61.5t4.5 51t1 36q0 249 -143 249q-34 0 -60 -14.5t-41 -40t-24.5 -50.5t-13 -58t-4.5 -49.5t-1 -36.5z" />
    <glyph glyph-name="e" unicode="e" horiz-adv-x="1153" 
d="M1073 453h-604q12 -90 80 -143.5t162 -53.5q60 0 121.5 14t101.5 30t113 48v-280q-224 -105 -439 -105q-278 0 -405 156q-125 148 -125 375q0 82 18 161t58.5 153.5t99.5 130t148 89t196 33.5q496 0 475 -608zM465 645h262q1 28 -3.5 57t-17 61t-39.5 52.5t-65 20.5
q-51 0 -92 -46t-45 -145z" />
    <glyph glyph-name="f" unicode="f" horiz-adv-x="768" 
d="M928 1425v-288h-199q0 17 -0.5 27t-4 26.5t-10.5 26t-21 17t-34 7.5q-25 0 -42 -10.5t-25.5 -24t-13 -36.5t-5 -36t-0.5 -34v-74h189v-272h-189v-461q0 -51 18 -65.5t87 -14.5h37v-213h-668v213h53q30 0 47.5 5.5t24.5 21t8.5 28.5t1.5 43v443h-135v272h135v29
q0 94 22.5 168.5t70.5 133.5t132.5 90.5t200.5 31.5q148 0 320 -54z" />
    <glyph glyph-name="g" unicode="g" horiz-adv-x="1193" 
d="M1151 1022v-213h-147q43 -88 43 -178q0 -84 -50.5 -160.5t-140.5 -118.5q-32 -15 -72.5 -23.5t-74.5 -11t-103 -6.5q-135 -6 -135 -61q0 -29 39 -41q35 -11 71 -15t177 -8q30 -1 47 -2t53.5 -4.5t60 -9t58.5 -16t58 -25t49 -37t41 -50.5t25.5 -66.5t10.5 -84.5
q0 -61 -16.5 -113t-42 -88.5t-66 -66t-77.5 -48t-87.5 -31.5t-86 -19t-84 -9.5t-69 -4t-52.5 -0.5q-57 0 -103 1.5t-105.5 7.5t-104.5 16t-91.5 28t-76.5 43t-49 62.5t-19 84.5q0 46 20 82.5t45 56.5t64.5 35.5t63 20.5t55.5 10v4q-29 9 -50.5 18.5t-48.5 28.5t-42 51
t-15 74q0 28 9.5 55t31.5 58t67.5 59.5t108.5 48.5v4q-23 8 -45 17.5t-57 35t-60 57.5t-44 86.5t-19 119.5q0 166 120.5 275.5t337.5 109.5q137 0 230 -39h348zM700 702q0 191 -112 191q-29 0 -51.5 -10.5t-35 -31t-21 -39.5t-11.5 -48t-3.5 -44t-0.5 -38q0 -190 113 -190
q122 0 122 210zM616 -117q-110 0 -178 -20q-11 -3 -22.5 -8.5t-25 -21.5t-13.5 -36q0 -88 237 -88q234 0 234 94q0 80 -232 80z" />
    <glyph glyph-name="h" unicode="h" horiz-adv-x="1323" 
d="M29 1440l514 39v-588h4q29 71 109.5 117.5t189.5 46.5q70 0 125.5 -17.5t90.5 -47.5t56 -62t33 -68q18 -52 21.5 -96.5t3.5 -163.5v-227q0 -126 14 -142q9 -12 23.5 -14t76.5 -4v-213h-518v541q0 41 -0.5 61t-3 51.5t-9 46.5t-17 32t-28.5 23.5t-42 6.5q-27 0 -48 -9.5
t-34 -23t-22.5 -36t-14 -40.5t-7 -46t-3 -42.5t-0.5 -38.5v-172q0 -78 3.5 -97.5t14.5 -27.5q12 -10 27 -12t78 -4v-213h-637v213q65 1 83 4t27 14q19 21 19 123v731q0 93 -5 114t-32 28q-9 2 -92 2v211z" />
    <glyph glyph-name="i" unicode="i" horiz-adv-x="704" 
d="M47 791v213l508 40v-735q0 -64 18.5 -80t98.5 -16v-213h-625v213q35 1 49 1.5t32.5 4.5t23 9.5t11 19t7 30t0.5 46.5v383q0 46 -12 65t-56 19h-55zM86 1317q0 46 23 79t52 48.5t70.5 24t61.5 9.5t43 1q16 0 28.5 -0.5t39 -3.5t46.5 -8.5t45 -17.5t41 -28.5t27.5 -43.5
t11.5 -60q0 -48 -23 -82t-62.5 -51t-79 -24t-84.5 -7q-240 0 -240 164z" />
    <glyph glyph-name="j" unicode="j" horiz-adv-x="704" 
d="M55 788v211l518 45v-987q0 -126 -23.5 -220t-75.5 -165t-140.5 -107t-212.5 -36q-123 0 -283 41v289h189q1 -20 1.5 -28.5t5 -27t11.5 -27t21 -16.5t34 -8q18 0 31.5 5.5t22 19t13 25.5t6.5 35t2.5 37t0.5 42v770q0 78 -15.5 91t-105.5 11zM104 1317q0 33 12 60
t29.5 43.5t44 28.5t47.5 17.5t49 8.5t40 3.5t28 0.5q19 0 34 -1t47.5 -5t56.5 -14.5t49 -27t39 -46t14 -68.5q0 -48 -23.5 -82t-62.5 -51t-79 -24t-85 -7q-240 0 -240 164z" />
    <glyph glyph-name="k" unicode="k" horiz-adv-x="1300" 
d="M680 1026h584v-213q-50 -3 -70 -13.5t-70 -60.5l-178 -180l178 -244q0 -2 4 -6q46 -65 80.5 -81.5t91.5 -14.5v-213h-579v147q0 34 -2 48t-12 30q-18 29 -27 41l-117 166h-4v-432h-514v213q74 0 95.5 14t21.5 72v848q0 60 -18.5 71t-112.5 11v207l528 43v-910l131 142
q45 49 45 73q0 29 -55 29v213z" />
    <glyph glyph-name="l" unicode="l" horiz-adv-x="704" 
d="M39 1442l518 37v-1178q0 -32 1.5 -44.5t13 -25t34 -15.5t66.5 -3v-213h-619v213q57 0 81 8t30 23.5t6 56.5v836q0 23 -0.5 34t-3.5 25.5t-9 20.5t-17.5 10.5t-28.5 3.5h-72v211z" />
    <glyph glyph-name="m" unicode="m" horiz-adv-x="1984" 
d="M55 995l488 31q18 -50 20 -133h4q46 77 128.5 119.5t176.5 42.5q32 0 65 -6t81 -23.5t89 -60t64 -105.5q115 195 330 195q64 0 115.5 -15t85 -38.5t58.5 -58t38.5 -67t21 -73t9.5 -68t2 -59.5v-383q0 -52 20 -66t93 -14v-213h-519v573q0 43 -2 67t-10.5 57t-30.5 49
t-57 16q-27 0 -47.5 -9.5t-34 -22t-22.5 -37.5t-13.5 -42t-7 -50t-2.5 -48.5v-48.5v-203q0 -52 20.5 -70t100.5 -18v-213h-526v608q0 154 -103 154q-47 0 -76.5 -31.5t-39 -71t-9.5 -86.5v-272q0 -27 1.5 -39t10 -25.5t27.5 -18.5t53 -5h29v-213h-631v213q33 1 46.5 1.5
t31.5 4t23 8.5t11.5 17t7.5 27.5t1 41.5v389q0 18 -0.5 27t-3.5 22t-8.5 19.5t-16.5 11t-28 4.5q-4 0 -12 -0.5t-22.5 -1.5t-29.5 -2v213z" />
    <glyph glyph-name="n" unicode="n" horiz-adv-x="1343" 
d="M53 995l486 37q16 -58 18 -145h4q9 17 19 33t36 42.5t57 45t81.5 33t109.5 14.5q105 0 183 -45.5t112 -126.5q23 -54 28 -105t5 -164v-262q0 -52 2 -75t15 -40.5t33.5 -20.5t64.5 -3v-213h-519v532q0 45 -0.5 66.5t-3 54t-9 47.5t-17 32t-28 23.5t-42.5 6.5
q-27 0 -48 -9.5t-34 -23t-22.5 -36.5t-14 -41.5t-7 -47.5t-3 -44t-0.5 -42v-151q0 -77 1.5 -96.5t8.5 -32.5q7 -15 25 -18.5t90 -6.5v-213h-631v213q36 1 50.5 1t32.5 5.5t22 10.5t10 22t6 34v52v250q0 139 -8 167.5t-53 28.5h-60v211z" />
    <glyph glyph-name="o" unicode="o" horiz-adv-x="1236" 
d="M1161 549q0 -262 -137 -420q-28 -32 -59 -57t-81 -52t-123 -42t-163 -15q-124 0 -220 37t-151.5 92t-91 129.5t-47.5 139.5t-12 131q0 77 15.5 151t55 151.5t100 135t158.5 94.5t222 37q258 0 396 -139t138 -373zM774 532q0 24 -0.5 39t-3 47t-8 53.5t-17 49t-27 44
t-40.5 28.5t-57 12q-162 0 -162 -303q0 -279 166 -279q83 0 116 77t33 232z" />
    <glyph glyph-name="p" unicode="p" horiz-adv-x="1300" 
d="M33 993l485 33q19 -68 21 -139h4q19 32 36.5 54.5t51.5 52t84.5 45.5t113.5 16q91 0 162.5 -34t113.5 -86.5t69.5 -123t37 -135t9.5 -131.5q0 -83 -15 -163.5t-48.5 -156t-82.5 -132t-121.5 -90.5t-160.5 -34q-58 0 -109.5 17t-79 35t-63.5 47v-195q0 -57 17.5 -74.5
t84.5 -17.5h35v-211h-645v211q84 0 102.5 15.5t18.5 86.5v815q0 65 -18.5 78.5t-102.5 7.5v209zM813 500q0 250 -139 250q-35 0 -62 -16t-42.5 -44t-25.5 -56t-14 -62.5t-5 -52.5t-1 -36q0 -61 10.5 -107.5t26 -72t36.5 -41.5t39 -21t36 -5q141 0 141 264z" />
    <glyph glyph-name="q" unicode="q" horiz-adv-x="1280" 
d="M903 1055h244v-1182q0 -61 19 -75.5t96 -14.5v-213h-644v213h50q33 0 51.5 4.5t26.5 17.5t10 26.5t2 41.5v231q-27 -30 -47 -48t-55 -41t-81 -34.5t-102 -11.5q-90 0 -160.5 32.5t-113.5 83.5t-70.5 120.5t-38 136.5t-10.5 139q0 117 26.5 213.5t71 162.5t104.5 111
t126 66t137 21q53 0 100.5 -10.5t88 -31t60 -32.5t48.5 -33zM487 528q0 -258 138 -258q53 0 88 40.5t49 98t14 126.5q0 119 -36 184t-107 65q-30 0 -54 -12.5t-38.5 -30t-25.5 -44.5t-16 -49t-8 -50t-3.5 -41t-0.5 -29z" />
    <glyph glyph-name="r" unicode="r" horiz-adv-x="937" 
d="M49 999l471 31q19 -72 19 -170h4q15 26 26 42.5t37 45.5t52.5 46.5t67.5 31.5t87 14q54 0 131 -28v-377h-229q0 29 -6 41q-7 24 -37 24q-34 0 -59 -21.5t-38.5 -52t-21.5 -73.5t-10 -75.5t-2 -67.5v-105q0 -55 16 -73.5t82 -18.5h43v-213h-633v213h31q58 0 74 18t16 68
v408q0 18 -0.5 27t-3.5 22t-9 19.5t-17.5 11t-28.5 4.5l-62 -3v211z" />
    <glyph glyph-name="s" unicode="s" horiz-adv-x="1044" 
d="M928 987v-264h-293v29q0 19 -1 31.5t-6.5 30t-16 28t-31.5 18.5t-50 8q-31 0 -52.5 -9t-29.5 -23.5t-11 -24.5t-3 -18q0 -41 28.5 -61.5t117.5 -57.5q50 -20 74 -30t65 -27.5t61 -28t51 -28t46 -31t36 -33t30.5 -38.5t20 -43t14 -50.5t3.5 -57.5q0 -87 -38 -158t-97 -110
q-111 -76 -324 -76q-104 0 -200.5 15.5t-134 26.5t-97.5 32v287h295q4 -77 16 -101q23 -45 93 -45q58 0 80 27t22 59q0 46 -32.5 69.5t-137.5 65.5q-40 16 -65.5 27t-64.5 31t-64.5 37.5t-55 44.5t-46.5 54.5t-28.5 65t-11.5 78.5q0 19 2.5 39.5t12.5 54t27.5 63t51 61
t78 54.5t114 37.5t154.5 14.5q75 0 186 -16.5t212 -57.5z" />
    <glyph glyph-name="t" unicode="t" horiz-adv-x="854" 
d="M545 1026h233v-270h-233v-312q0 -32 0.5 -48t6 -41t15 -37t29.5 -21.5t49 -9.5q64 0 133 24v-264q-160 -70 -319 -70q-64 0 -114.5 14t-82 33.5t-54.5 52t-34 58.5t-17 65t-6.5 59t-0.5 52v445h-123v229q64 17 114 52t79 74t49 87.5t28.5 87.5t11.5 80h236v-340z" />
    <glyph glyph-name="u" unicode="u" horiz-adv-x="1343" 
d="M41 1012l516 26v-610q0 -23 0.5 -37.5t6 -42t15.5 -44t30.5 -29.5t49.5 -13q30 0 53 10.5t36.5 32.5t21.5 42.5t11.5 54t4 52t0.5 50.5v180q0 31 -1 45t-5 31t-13.5 23.5t-26.5 11t-44 4.5h-32v213l507 26v-712q0 -66 17.5 -78t105.5 -10v-211l-485 -35q-17 54 -21 141
h-4q-95 -164 -307 -164q-203 0 -291 164q-13 27 -22.5 100.5t-9.5 112.5v352q0 23 -0.5 33.5t-3.5 25t-10 19.5t-19.5 11.5t-32 8.5t-47.5 3v213z" />
    <glyph glyph-name="v" unicode="v" horiz-adv-x="1280" 
d="M23 1026h618v-213q-80 0 -80 -43q0 -10 14 -51q2 -4 7 -17l6 -12l104 -239l105 239q2 6 6 10q18 49 18 66q0 47 -73 47v213h509v-213q-38 -3 -56.5 -22.5t-43.5 -71.5l-354 -737h-318l-333 708q-20 43 -37 69t-34 37t-27.5 13.5t-30.5 3.5v213z" />
    <glyph glyph-name="w" unicode="w" horiz-adv-x="1855" 
d="M23 1026h595v-213q-16 0 -25 -1t-23.5 -5t-21.5 -15t-7 -28t12 -49l92 -232h4l172 543h320l168 -543h4l76 199q0 6 4 14q5 15 6 17q12 38 12 51q0 23 -13 34.5t-24.5 13t-32.5 1.5v213h492v-213q-21 0 -36.5 -6.5t-27.5 -24t-18 -29t-18 -38.5l-314 -715h-317l-164 451
l-170 -451h-322l-296 696q-15 35 -22.5 50t-22 33.5t-34 25.5t-48.5 8v213z" />
    <glyph glyph-name="x" unicode="x" horiz-adv-x="1323" 
d="M80 1026h563v-162q0 -33 4.5 -47.5t24.5 -48.5l35 -61l45 53q21 26 27.5 44.5t6.5 53.5v168h469v-213q-44 -1 -62.5 -11t-64.5 -54l-213 -203l224 -266q38 -45 63 -55.5t68 -10.5v-213h-574v152q0 35 -3.5 50t-20.5 42l-47 80l-62 -80q-4 -4 -6 -8q-18 -20 -21.5 -34.5
t-3.5 -49.5v-152h-479v213q20 -1 32.5 0.5t34 13t44.5 35.5q16 16 18 17l238 227l-197 225q-50 57 -75.5 69.5t-67.5 12.5v213z" />
    <glyph glyph-name="y" unicode="y" horiz-adv-x="1280" 
d="M23 1026h620v-213q-80 0 -80 -43q0 -14 25 -72l106 -237l105 227q0 4 4 12q18 32 18 66q0 47 -71 47v213h510v-213q-19 -1 -30 -4t-30 -21.5t-35 -52.5l-454 -958q-36 -77 -81.5 -129t-95 -76.5t-92.5 -33.5t-94 -9q-122 0 -266 55v316h197l1.5 -27t4.5 -25t10.5 -24.5
t19 -15.5t29.5 -7q23 0 40 12.5t42.5 57t58.5 129.5l-338 698q-37 77 -61 96t-63 19v213z" />
    <glyph glyph-name="z" unicode="z" horiz-adv-x="1216" 
d="M104 1026h1012v-252l-573 -520h202q63 0 83 14.5t20 67.5v33h287v-369h-1053v266l569 508h-182q-61 0 -77.5 -17.5t-16.5 -60.5v-34h-271v364z" />
    <glyph glyph-name="braceleft" unicode="{" horiz-adv-x="917" 
d="M858 1432v-318q-46 1 -75.5 -2.5t-52 -16t-34 -27.5t-19 -48t-9 -67.5t-2.5 -94.5q0 -60 -6 -108t-13.5 -80.5t-23 -59.5t-27 -42t-34 -30t-34.5 -20.5t-39 -17.5q36 -16 59 -30t48.5 -41.5t39 -64.5t23 -96.5t9.5 -140.5q0 -59 1.5 -93t9 -64.5t18.5 -44.5t34.5 -25
t51.5 -13.5t75 -3.5v-313h-127q-90 0 -156 9.5t-114 30.5t-79 51.5t-49 77t-24.5 101t-5.5 129.5l2 168q-7 111 -51 152.5t-143 44.5v332q63 0 102.5 16.5t59 53.5t26 78.5t6.5 107.5q0 92 1 135t8.5 110.5t23.5 97t45 70t74 56.5t111 28.5t155 12.5h135z" />
    <glyph glyph-name="bar" unicode="|" 
d="M518 1432h328v-1702h-328v1702z" />
    <glyph glyph-name="braceright" unicode="}" horiz-adv-x="917" 
d="M59 -430v317q46 -1 75.5 2.5t52 16t34.5 28t19 48t9 67t3 94.5q0 60 6 108t13.5 81t23 60t26.5 42t33.5 30t35 21t38.5 17q-36 16 -59 29.5t-48 41t-39 64.5t-23 96.5t-9 140.5q0 59 -1.5 93t-9.5 64.5t-19 44.5t-34.5 25t-51.5 13.5t-75 3.5v314h127q89 0 155.5 -9.5
t114.5 -31t79 -51.5t49 -77t24.5 -101.5t5.5 -129.5l-2 -168q7 -110 51.5 -151.5t143.5 -44.5v-332q-51 0 -86.5 -12t-56.5 -32t-33 -54t-15.5 -70t-3.5 -88v-2q0 -65 -0.5 -96t-3 -84t-8 -77.5t-15.5 -64.5t-25.5 -58t-37.5 -44.5t-53 -37.5t-70.5 -24t-90.5 -17.5
t-113 -4.5h-136z" />
    <glyph glyph-name="asciitilde" unicode="~" horiz-adv-x="1343" 
d="M1245 961v-326q-47 -38 -77 -59.5t-73.5 -46.5t-87.5 -36.5t-92 -11.5q-64 0 -123.5 18.5t-162.5 71.5q-82 40 -127.5 55t-83.5 15q-156 0 -320 -160v330q35 31 58 48t69 46t99.5 43.5t111.5 14.5q64 0 124.5 -19t158.5 -67q150 -72 217 -72q140 0 309 156z" />
    <glyph glyph-name="uni00A0" unicode="&#xa0;" horiz-adv-x="608" 
 />
    <glyph glyph-name="exclamdown" unicode="&#xa1;" horiz-adv-x="724" 
d="M553 -418h-387v262l35 697h317l35 -697v-262zM362 655q-84 0 -143 58.5t-59 144.5q0 84 59 143.5t143 59.5t143.5 -59.5t59.5 -143.5q0 -86 -59.5 -144.5t-143.5 -58.5z" />
    <glyph glyph-name="cent" unicode="&#xa2;" horiz-adv-x="1087" 
d="M1001 1147v-385h-286v98q0 26 -2 42.5t-10.5 40t-30 36t-56.5 12.5q-56 0 -95.5 -38t-57 -95t-17.5 -125q0 -78 22 -135.5t58.5 -88.5t78 -45.5t87.5 -14.5q148 0 297 77v-280q-138 -78 -282 -101v-245h-244v245q-44 10 -71 18.5t-77.5 37.5t-91.5 71q-141 146 -141 392
q0 67 10 127t25.5 106t40.5 87t48 69.5t55.5 54.5t56 41.5t56 31t48.5 21.5t41 15v262h244v-246q158 -19 294 -86z" />
    <glyph glyph-name="sterling" unicode="&#xa3;" horiz-adv-x="1173" 
d="M963 819v-258h-330q5 -137 -117 -264l4 -4q61 14 107 14q40 0 68 -5t120 -30q40 -12 82 -12q94 0 215 47v-278q-42 -21 -67 -31.5t-77 -22.5t-106 -12q-61 0 -101.5 9t-187.5 55q-70 18 -122 18q-157 0 -410 -82v277q239 102 233 321h-184v258h125q-41 130 -41 209
q0 169 131.5 274t356.5 105q223 0 397 -96v-359h-279v52q0 24 -0.5 37t-4 36t-11.5 36.5t-21.5 28.5t-36 22t-53.5 7q-58 0 -91.5 -36.5t-33.5 -92.5q0 -35 9 -69.5t43 -130.5q5 -20 8 -23h375z" />
    <glyph glyph-name="currency" unicode="&#xa4;" 
d="M905 1124l142 146l208 -213l-139 -142q53 -109 53 -225q0 -113 -53 -219l139 -139l-208 -211l-140 139q-105 -55 -227 -55q-115 0 -221 55l-137 -139l-213 211l141 139q-53 100 -53 219q0 123 53 223l-141 144l206 213l146 -146q109 56 221 56q113 0 223 -56zM874 692
q0 80 -56.5 136.5t-135.5 56.5q-78 0 -134 -57t-56 -136t56 -135.5t134 -56.5q80 0 136 56t56 136z" />
    <glyph glyph-name="yen" unicode="&#xa5;" horiz-adv-x="1409" 
d="M293 868l-133 195q0 1 -1 2.5t-2.5 3.5t-2.5 4q-17 25 -35 42.5t-27 22.5t-12 5q-29 8 -60 8v223h631v-223q-63 5 -63 -35q0 -18 22 -53l129 -195l125 185q29 37 29 65q0 39 -64 33v223h560v-223q-35 0 -51 -3t-38 -21t-47 -58q-2 -4 -14 -22l-123 -181h148v-176h-269
l-100 -147v-19h369v-178h-369v-49q0 -23 1.5 -33t9.5 -21.5t27 -15.5t52 -4h49v-223h-663v223h53q32 0 50.5 4t26.5 15.5t9.5 21.5t1.5 33v49h-367v178h367v19l-96 149h-271v176h148z" />
    <glyph glyph-name="brokenbar" unicode="&#xa6;" 
d="M518 469h328v-739h-328v739zM518 1432h328v-740h-328v740z" />
    <glyph glyph-name="section" unicode="&#xa7;" horiz-adv-x="1173" 
d="M981 1415v-309h-268q0 33 -1 51.5t-6 46.5t-15.5 42.5t-31 26t-49.5 11.5t-49 -10t-28.5 -25.5t-11.5 -26.5t-3 -20q0 -54 49 -106q13 -15 51.5 -46.5t106.5 -84t70 -54.5q71 -55 116.5 -97t92 -98t69.5 -117.5t23 -129.5q0 -239 -271 -354q93 -95 124.5 -153t31.5 -144
q0 -40 -10 -78t-38.5 -81t-73.5 -74.5t-122 -52.5t-176 -21q-195 0 -371 69v305h267v-47q0 -19 0.5 -30.5t6 -34t15 -35.5t30 -24t48.5 -11q44 0 69 27t25 65q0 44 -22 66q-21 29 -60 63.5t-186 151.5q-54 43 -86 71t-79 77t-73.5 90.5t-46.5 97t-20 112.5q0 71 32 140
t91 122q56 50 153 88q-26 22 -41 35t-42 43.5t-42.5 58t-28 68.5t-12.5 84q0 14 1.5 29t9.5 48.5t22.5 62t45.5 62.5t72 58t107 40t148 16q194 0 387 -64zM498 745q-105 -69 -105 -161q0 -25 8 -50t29 -53.5t39 -50t58.5 -58t66 -57.5t80.5 -67q28 19 46 35t38 50t20 73
q0 25 -5.5 47t-24 49t-34.5 46t-56.5 56.5t-68.5 62t-91 78.5z" />
    <glyph glyph-name="dieresis" unicode="&#xa8;" horiz-adv-x="681" 
d="M100 1477q62 0 106 -44.5t44 -107.5t-44 -107t-106 -44q-63 0 -107 44t-44 107t44 107.5t107 44.5zM584 1477q62 0 105.5 -44.5t43.5 -107.5t-43.5 -107t-105.5 -44q-63 0 -107.5 44t-44.5 107t44.5 107.5t107.5 44.5z" />
    <glyph glyph-name="copyright" unicode="&#xa9;" horiz-adv-x="1642" 
d="M997 627l201 -56q-85 -288 -371 -288q-181 0 -294 118.5t-113 315.5q0 194 111.5 316t299.5 122q56 0 108.5 -13.5t104.5 -43.5t91.5 -86t58.5 -133l-197 -37q-37 151 -172 151q-49 0 -86 -21.5t-55.5 -50.5t-30 -69.5t-14 -68.5t-2.5 -58q0 -281 182 -281q37 0 67.5 15
t47.5 33t32 48.5t19.5 46t11.5 40.5zM1606 713q0 -162 -63 -308t-168.5 -250t-250.5 -165.5t-303 -61.5q-159 0 -304 62t-249.5 167t-166.5 250.5t-62 305.5q0 158 62 303t166.5 250t249.5 167t304 62t304 -61.5t250.5 -165.5t168 -249.5t62.5 -305.5zM1421 713
q0 122 -48 232.5t-128.5 190t-191.5 126.5t-232 47q-122 0 -233 -47.5t-191 -127.5t-127 -190t-47 -231q0 -122 47.5 -232.5t127.5 -190.5t190.5 -127.5t232.5 -47.5q121 0 232 47t191.5 126.5t128.5 190.5t48 234z" />
    <glyph glyph-name="ordfeminine" unicode="&#xaa;" horiz-adv-x="831" 
d="M113 1257v142q136 80 313 80q37 0 70 -3t76.5 -16t74 -35t52.5 -63.5t22 -97.5v-201q0 -34 6.5 -49t26.5 -15q5 0 37 11q2 0 7.5 2t6.5 2v-148q-54 -22 -114 -31.5t-93 -9.5q-79 0 -119 66q-28 -20 -47.5 -31t-63.5 -23t-96 -12q-54 0 -95 14t-62.5 33.5t-35 45.5
t-17 45.5t-3.5 37.5q0 47 22 83t50 58t89.5 42t103.5 29t129 26q0 21 -1.5 33t-7 28.5t-19.5 24.5t-36 8q-63 0 -67 -76h-209zM453 1075v51q-16 -8 -29 -8q-23 -7 -37 -12.5t-32 -16t-27 -26.5t-9 -37q0 -27 15 -44t41 -17q78 0 78 110z" />
    <glyph glyph-name="guillemotleft" unicode="&#xab;" horiz-adv-x="1280" 
d="M338 98l-285 414l285 414h334l-256 -414l256 -414h-334zM889 98l-285 414l285 414h334l-256 -414l256 -414h-334z" />
    <glyph glyph-name="logicalnot" unicode="&#xac;" 
d="M109 1102h1148v-817h-325v491h-823v326z" />
    <glyph glyph-name="registered" unicode="&#xae;" horiz-adv-x="1642" 
d="M467 319v834h274q127 0 193 -11.5t108 -35.5q45 -25 74 -78t29 -115q0 -49 -18.5 -92.5t-65.5 -81.5t-117 -55v-4q20 -8 35 -18.5t45 -49.5t66 -106q2 -3 5.5 -9t16.5 -28t31 -53l55 -97h-244l-36 72q-1 2 -29 53q-6 9 -6 15q-26 46 -37 65t-30 48t-31 39t-31 22
t-38.5 15t-45.5 1v-330h-203zM670 999v-194h67q45 0 73.5 2.5t60.5 11.5t47.5 29.5t15.5 52.5q0 24 -8 41.5t-25.5 27.5t-33 16.5t-42.5 9t-42 3t-42 0.5h-71zM1606 713q0 -162 -63 -308t-168.5 -250t-250.5 -165.5t-303 -61.5q-159 0 -304 62t-249.5 167t-166.5 250.5
t-62 305.5q0 158 62 303t166.5 250t249.5 167t304 62t304 -61.5t250.5 -165.5t168 -249.5t62.5 -305.5zM1421 713q0 122 -48 232.5t-128.5 190t-191.5 126.5t-232 47q-122 0 -233 -47.5t-191 -127.5t-127 -190t-47 -231q0 -122 47.5 -232.5t127.5 -190.5t190.5 -127.5
t232.5 -47.5q121 0 232 47t191.5 126.5t128.5 190.5t48 234z" />
    <glyph glyph-name="macron" unicode="&#xaf;" horiz-adv-x="681" 
d="M-61 1415h806v-192h-806v192z" />
    <glyph glyph-name="macron" unicode="&#x2c9;" horiz-adv-x="681" 
d="M-61 1415h806v-192h-806v192z" />
    <glyph glyph-name="degree" unicode="&#xb0;" horiz-adv-x="811" 
d="M711 1102q0 -126 -89.5 -214.5t-215.5 -88.5t-215 88.5t-89 214.5t89 215.5t215 89.5t215.5 -89.5t89.5 -215.5zM506 1104q0 41 -29.5 70.5t-70.5 29.5q-42 0 -72.5 -29.5t-30.5 -70.5q0 -42 30.5 -72.5t72.5 -30.5q41 0 70.5 30t29.5 73z" />
    <glyph glyph-name="plusminus" unicode="&#xb1;" 
d="M109 1067h411v412h326v-412h411v-326h-411v-411h-326v411h-411v326zM109 258h1148v-326h-1148v326z" />
    <glyph glyph-name="twosuperior" unicode="&#xb2;" horiz-adv-x="831" 
d="M766 948v-231h-696v166q214 134 307 219q92 81 92 160q0 69 -74 69q-22 0 -38 -6.5t-23.5 -15t-11.5 -24t-4.5 -24t-0.5 -24.5v-49h-219v194q49 29 86 46.5t104.5 34t141.5 16.5q140 0 223.5 -54.5t83.5 -156.5q0 -56 -25 -107t-76.5 -98t-101.5 -82t-128 -82v-4h108
q31 0 36 6.5t5 46.5h211z" />
    <glyph glyph-name="threesuperior" unicode="&#xb3;" horiz-adv-x="831" 
d="M109 1221v184q81 39 149 56.5t164 17.5q149 0 227 -53t78 -142q0 -115 -131 -162v-4q145 -46 145 -178q0 -34 -9.5 -66t-33.5 -64t-61 -56t-98 -39t-138 -15q-101 0 -172.5 15.5t-144.5 46.5v209h219v-51q0 -16 1.5 -25t8 -22.5t23 -20t43.5 -6.5q51 0 73.5 26.5
t22.5 59.5q0 100 -147 96v154q16 0 26.5 0.5t29.5 2.5t31.5 7.5t26 14.5t20.5 24.5t7 36.5q0 36 -22.5 52.5t-53.5 16.5q-23 0 -39 -6.5t-24 -14.5t-12 -22t-4.5 -22.5t-0.5 -22.5v-28h-204z" />
    <glyph glyph-name="acute" unicode="&#xb4;" horiz-adv-x="681" 
d="M248 1438h383l-236 -264h-264z" />
    <glyph glyph-name="mu" unicode="&#xb5;" horiz-adv-x="1343" 
d="M123 1026h403v-498q0 -28 1 -44.5t5 -47t14 -49.5t26.5 -39.5t45 -30.5t66.5 -10q152 0 152 232v487h385v-1026h-361v84h-4q-7 -15 -17.5 -30.5t-29.5 -35t-49 -31.5t-66 -12q-106 0 -164 101h-4v-506h-403v1456z" />
    <glyph glyph-name="mu" unicode="&#x3bc;" horiz-adv-x="1343" 
d="M123 1026h403v-498q0 -28 1 -44.5t5 -47t14 -49.5t26.5 -39.5t45 -30.5t66.5 -10q152 0 152 232v487h385v-1026h-361v84h-4q-7 -15 -17.5 -30.5t-29.5 -35t-49 -31.5t-66 -12q-106 0 -164 101h-4v-506h-403v1456z" />
    <glyph glyph-name="paragraph" unicode="&#xb6;" horiz-adv-x="1599" 
d="M1475 1466v-307h-132v-1567h-296v1567h-168v-1567h-297v1022q-141 12 -221.5 44t-137.5 104q-94 116 -94 287q0 129 57 220.5t138 137.5q55 31 143 45t172 14h836z" />
    <glyph glyph-name="periodcentered" unicode="&#xb7;" horiz-adv-x="724" 
d="M362 893q84 0 144.5 -59.5t60.5 -145.5q0 -85 -60 -145t-145 -60t-144.5 60t-59.5 145q0 88 63 146.5t141 58.5z" />
    <glyph glyph-name="periodcentered" unicode="&#x2219;" horiz-adv-x="724" 
d="M362 893q84 0 144.5 -59.5t60.5 -145.5q0 -85 -60 -145t-145 -60t-144.5 60t-59.5 145q0 88 63 146.5t141 58.5z" />
    <glyph glyph-name="cedilla" unicode="&#xb8;" horiz-adv-x="681" 
d="M281 18h182l-27 -112q81 -9 123.5 -54t42.5 -116q0 -63 -27.5 -109t-73 -70t-94 -35t-102.5 -11q-111 0 -229 40v160q132 -37 217 -37q35 0 67.5 13.5t32.5 44.5q0 59 -104 59q-10 0 -70 -6z" />
    <glyph glyph-name="onesuperior" unicode="&#xb9;" horiz-adv-x="831" 
d="M410 1479h149v-596q0 -26 7 -32.5t40 -6.5h72v-127h-498v127h74q32 0 38.5 6.5t6.5 32.5v309q0 27 -8.5 34.5t-42.5 4.5l-86 -6v123q41 7 64 13t61 19.5t68 38.5t55 60z" />
    <glyph glyph-name="ordmasculine" unicode="&#xba;" horiz-adv-x="831" 
d="M776 1169q0 -74 -21.5 -136.5t-65.5 -111.5t-117 -76.5t-169 -27.5q-81 0 -143.5 21t-100 54t-61.5 77t-32.5 85t-8.5 83q0 64 20.5 122.5t61.5 109t113 80.5t166 30q158 0 258 -79.5t100 -230.5zM504 1157q0 21 -0.5 35t-5 40t-13 42t-26 28.5t-41.5 12.5
q-31 0 -51.5 -19.5t-28 -51.5t-10 -54t-2.5 -45q0 -160 92 -160q49 0 67.5 43t18.5 129z" />
    <glyph glyph-name="guillemotright" unicode="&#xbb;" horiz-adv-x="1280" 
d="M942 926l285 -414l-285 -414h-334l256 414l-256 414h334zM391 926l285 -414l-285 -414h-334l256 414l-256 414h334z" />
    <glyph glyph-name="onequarter" unicode="&#xbc;" horiz-adv-x="2068" 
d="M1616 762h233v-402h111v-178h-111q0 -41 6 -49q8 -8 41 -8h56v-125h-459v125h66q33 0 39 7.5t6 49.5h-387v191zM1628 530l-196 -190h196v190zM1352 1479h288l-897 -1524h-290zM410 1479h149v-596q0 -26 7 -32.5t40 -6.5h72v-127h-498v127h74q32 0 38.5 6.5t6.5 32.5v309
q0 27 -8.5 34.5t-42.5 4.5l-86 -6v123q41 7 64 13t61 19.5t68 38.5t55 60z" />
    <glyph glyph-name="onehalf" unicode="&#xbd;" horiz-adv-x="2068" 
d="M1339 1479h289l-897 -1524h-291zM410 1479h149v-596q0 -26 7 -32.5t40 -6.5h72v-127h-498v127h74q32 0 38.5 6.5t6.5 32.5v309q0 27 -8.5 34.5t-42.5 4.5l-86 -6v123q41 7 64 13t61 19.5t68 38.5t55 60zM2003 231v-231h-696v166q214 134 307 219q92 81 92 160
q0 69 -74 69q-22 0 -38 -6.5t-23.5 -15t-11.5 -24t-4.5 -24t-0.5 -24.5v-49h-219v195q48 29 85.5 46.5t104.5 33.5t142 16q140 0 223.5 -54.5t83.5 -156.5q0 -45 -18.5 -88.5t-46.5 -78t-75 -72.5t-89 -65.5t-103 -64.5v-4h109q31 0 36 6.5t5 46.5h211z" />
    <glyph glyph-name="threequarters" unicode="&#xbe;" horiz-adv-x="2068" 
d="M1360 1479h289l-897 -1524h-291zM129 1221v184q81 39 149 56.5t164 17.5q149 0 227.5 -53t78.5 -142q0 -114 -132 -162v-4q146 -46 146 -178q0 -34 -9.5 -66t-33.5 -64t-61 -56t-98 -39t-138 -15q-169 0 -318 62v209h220v-51q0 -16 1.5 -24.5t7.5 -22.5t22.5 -20.5
t43.5 -6.5q51 0 74 26.5t23 59.5q0 100 -148 96v154q16 0 26.5 0.5t29.5 2.5t31.5 7.5t26 14.5t20.5 24.5t7 36.5q0 36 -22 52.5t-53 16.5q-23 0 -39 -6.5t-24 -14.5t-12 -22t-4.5 -22.5t-0.5 -22.5v-28h-205zM1636 762h234v-402h110v-178h-110q0 -41 6 -49q8 -8 41 -8h55
v-125h-459v125h66q33 0 39 7.5t6 49.5h-387v191zM1649 530l-197 -190h197v190z" />
    <glyph glyph-name="questiondown" unicode="&#xbf;" horiz-adv-x="1044" 
d="M430 541h315q-4 -90 -30 -169t-101 -169q-96 -115 -130.5 -172t-34.5 -123q0 -41 29.5 -81t90.5 -40q34 0 58 12t36 29t19 44.5t8.5 48t1.5 50.5v60h287v-342q-195 -144 -465 -144q-113 0 -198.5 27.5t-130 66t-72 90t-34.5 88t-7 72.5q0 54 14 102.5t40.5 89t47.5 65.5
t51 55q51 51 76.5 79t56.5 71t47.5 88t24.5 102zM571 653q-85 0 -143.5 59.5t-58.5 145.5q0 84 59 143.5t143 59.5q86 0 145.5 -59.5t59.5 -143.5q0 -85 -60 -145t-145 -60z" />
    <glyph glyph-name="Agrave" unicode="&#xc0;" horiz-adv-x="1492" 
d="M545 1448h413l361 -1075q30 -90 55 -116t74 -26h29v-231h-650v231h45q62 0 62 39q0 11 -6.5 36t-9.5 30l-15 49h-381l-14 -47q-14 -38 -14 -64q0 -15 9 -24.5t26 -13t28.5 -4.5t30.5 -1v-231h-572v231q68 0 95.5 21t54.5 98zM715 1063l-140 -414h279l-135 414h-4z
M957 1555h-264l-236 264h383z" />
    <glyph glyph-name="Aacute" unicode="&#xc1;" horiz-adv-x="1492" 
d="M545 1448h413l361 -1075q30 -90 55 -116t74 -26h29v-231h-650v231h45q62 0 62 39q0 11 -6.5 36t-9.5 30l-15 49h-381l-14 -47q-14 -38 -14 -64q0 -15 9 -24.5t26 -13t28.5 -4.5t30.5 -1v-231h-572v231q68 0 95.5 21t54.5 98zM715 1063l-140 -414h279l-135 414h-4z
M654 1819h383l-236 -264h-264z" />
    <glyph glyph-name="Acircumflex" unicode="&#xc2;" horiz-adv-x="1492" 
d="M545 1448h413l361 -1075q30 -90 55 -116t74 -26h29v-231h-650v231h45q62 0 62 39q0 11 -6.5 36t-9.5 30l-15 49h-381l-14 -47q-14 -38 -14 -64q0 -15 9 -24.5t26 -13t28.5 -4.5t30.5 -1v-231h-572v231q68 0 95.5 21t54.5 98zM715 1063l-140 -414h279l-135 414h-4z
M558 1819h376l195 -264h-293l-90 118l-90 -118h-291z" />
    <glyph glyph-name="Atilde" unicode="&#xc3;" horiz-adv-x="1492" 
d="M545 1448h413l361 -1075q30 -90 55 -116t74 -26h29v-231h-650v231h45q62 0 62 39q0 11 -6.5 36t-9.5 30l-15 49h-381l-14 -47q-14 -38 -14 -64q0 -15 9 -24.5t26 -13t28.5 -4.5t30.5 -1v-231h-572v231q68 0 95.5 21t54.5 98zM715 1063l-140 -414h279l-135 414h-4z
M957 1845h194q1 -140 -66 -215t-171 -75q-74 0 -168 38q-117 43 -145 43q-33 0 -47.5 -24t-14.5 -57h-196q0 70 15.5 124t39 84t55.5 49t60 25t57 6q85 0 256 -63q45 -15 67 -15q9 0 16 1.5t18.5 8t19.5 24.5t10 46z" />
    <glyph glyph-name="Adieresis" unicode="&#xc4;" horiz-adv-x="1492" 
d="M545 1448h413l361 -1075q30 -90 55 -116t74 -26h29v-231h-650v231h45q62 0 62 39q0 11 -6.5 36t-9.5 30l-15 49h-381l-14 -47q-14 -38 -14 -64q0 -15 9 -24.5t26 -13t28.5 -4.5t30.5 -1v-231h-572v231q68 0 95.5 21t54.5 98zM715 1063l-140 -414h279l-135 414h-4z
M506 1858q62 0 106 -44.5t44 -107.5t-44 -107t-106 -44q-63 0 -107 44t-44 107t44 107.5t107 44.5zM990 1858q62 0 105.5 -44.5t43.5 -107.5t-43.5 -107t-105.5 -44q-63 0 -107.5 44t-44.5 107t44.5 107.5t107.5 44.5z" />
    <glyph glyph-name="Aring" unicode="&#xc5;" horiz-adv-x="1492" 
d="M545 1448h413l361 -1075q30 -90 55 -116t74 -26h29v-231h-650v231h45q62 0 62 39q0 11 -6.5 36t-9.5 30l-15 49h-381l-14 -47q-14 -38 -14 -64q0 -15 9 -24.5t26 -13t28.5 -4.5t30.5 -1v-231h-572v231q68 0 95.5 21t54.5 98zM715 1063l-140 -414h279l-135 414h-4z
M748 1993q90 0 154.5 -63.5t64.5 -155.5t-64.5 -155.5t-154.5 -63.5q-91 0 -156 64t-65 155q0 92 65 155.5t156 63.5zM746 1868q-38 0 -65 -28t-27 -66q0 -37 27 -65t65 -28t66 27.5t28 65.5q0 39 -27.5 66.5t-66.5 27.5z" />
    <glyph glyph-name="AE" unicode="&#xc6;" horiz-adv-x="2048" 
d="M471 1432h1456v-433h-293v60q0 55 -14 73.5t-66 18.5h-219v-274h420v-289h-420v-314h234q27 0 39 1.5t26.5 10t19.5 27.5t5 52v75h293v-440h-1135v231h64q27 0 42.5 5t22 18.5t7.5 23.5t1 33v95h-389l-45 -82q-20 -35 -20 -56q0 -13 7.5 -21t23.5 -11.5t27.5 -4
t31.5 -0.5v-231h-584v231q53 2 84 19t62 74l397 718q41 74 41 107q0 51 -80 51h-39v232zM950 1188l-280 -516h284v516h-4z" />
    <glyph glyph-name="Ccedilla" unicode="&#xc7;" horiz-adv-x="1449" 
d="M825 -45l-12 -45q176 -26 176 -174q0 -104 -84 -161.5t-215 -57.5q-121 0 -229 34v162q134 -39 196 -39q121 0 121 62q0 31 -29.5 44t-64.5 13q-26 0 -72 -6l47 176q-48 8 -80 16.5t-85 28t-103.5 55.5t-97.5 87q-199 216 -199 565q0 122 26 231.5t84 208t143 170
t211 113t280 41.5q92 0 175 -11.5t151 -33t101 -34.5t78 -34v-467h-335v113q0 32 -2 53.5t-12.5 55t-29.5 54t-58 36.5t-93 16q-60 0 -108.5 -19.5t-80.5 -50t-56 -74t-37 -85t-21 -90t-10 -82.5t-2 -68q0 -74 10 -138.5t37.5 -128t70 -108.5t113 -72.5t162.5 -27.5
q214 0 444 143v-320q-138 -87 -256 -118t-254 -33z" />
    <glyph glyph-name="Egrave" unicode="&#xc8;" horiz-adv-x="1323" 
d="M84 1432h1126v-426h-295v69q0 28 -5.5 45t-20 23.5t-25.5 8t-35 1.5h-211v-274h422v-289h-422v-311h220q63 0 82.5 14t19.5 65v84h295v-442h-1151v231h51q59 0 71.5 18t12.5 75v784q0 27 -1.5 39.5t-9 27t-25 20t-48.5 5.5h-51v232zM873 1555h-264l-236 264h383z" />
    <glyph glyph-name="Eacute" unicode="&#xc9;" horiz-adv-x="1323" 
d="M84 1432h1126v-426h-295v69q0 28 -5.5 45t-20 23.5t-25.5 8t-35 1.5h-211v-274h422v-289h-422v-311h220q63 0 82.5 14t19.5 65v84h295v-442h-1151v231h51q59 0 71.5 18t12.5 75v784q0 27 -1.5 39.5t-9 27t-25 20t-48.5 5.5h-51v232zM570 1819h383l-236 -264h-264z" />
    <glyph glyph-name="Ecircumflex" unicode="&#xca;" horiz-adv-x="1323" 
d="M84 1432h1126v-426h-295v69q0 28 -5.5 45t-20 23.5t-25.5 8t-35 1.5h-211v-274h422v-289h-422v-311h220q63 0 82.5 14t19.5 65v84h295v-442h-1151v231h51q59 0 71.5 18t12.5 75v784q0 27 -1.5 39.5t-9 27t-25 20t-48.5 5.5h-51v232zM474 1819h376l195 -264h-293l-90 118
l-90 -118h-291z" />
    <glyph glyph-name="Edieresis" unicode="&#xcb;" horiz-adv-x="1323" 
d="M84 1432h1126v-426h-295v69q0 28 -5.5 45t-20 23.5t-25.5 8t-35 1.5h-211v-274h422v-289h-422v-311h220q63 0 82.5 14t19.5 65v84h295v-442h-1151v231h51q59 0 71.5 18t12.5 75v784q0 27 -1.5 39.5t-9 27t-25 20t-48.5 5.5h-51v232zM422 1858q62 0 106 -44.5t44 -107.5
t-44 -107t-106 -44q-63 0 -107 44t-44 107t44 107.5t107 44.5zM906 1858q62 0 105.5 -44.5t43.5 -107.5t-43.5 -107t-105.5 -44q-63 0 -107.5 44t-44.5 107t44.5 107.5t107.5 44.5z" />
    <glyph glyph-name="Igrave" unicode="&#xcc;" horiz-adv-x="831" 
d="M78 1432h676v-232h-54q-56 0 -70 -21.5t-14 -80.5v-785q0 -44 17 -63t76 -19h45v-231h-676v231h47q33 0 52 4.5t27 18.5t9.5 26.5t1.5 43.5v788q0 28 -1.5 40t-10.5 25.5t-29 18t-55 4.5h-41v232zM627 1555h-264l-236 264h383z" />
    <glyph glyph-name="Iacute" unicode="&#xcd;" horiz-adv-x="831" 
d="M78 1432h676v-232h-54q-56 0 -70 -21.5t-14 -80.5v-785q0 -44 17 -63t76 -19h45v-231h-676v231h47q33 0 52 4.5t27 18.5t9.5 26.5t1.5 43.5v788q0 28 -1.5 40t-10.5 25.5t-29 18t-55 4.5h-41v232zM324 1819h383l-236 -264h-264z" />
    <glyph glyph-name="Icircumflex" unicode="&#xce;" horiz-adv-x="831" 
d="M78 1432h676v-232h-54q-56 0 -70 -21.5t-14 -80.5v-785q0 -44 17 -63t76 -19h45v-231h-676v231h47q33 0 52 4.5t27 18.5t9.5 26.5t1.5 43.5v788q0 28 -1.5 40t-10.5 25.5t-29 18t-55 4.5h-41v232zM228 1819h376l195 -264h-293l-90 118l-90 -118h-291z" />
    <glyph glyph-name="Idieresis" unicode="&#xcf;" horiz-adv-x="831" 
d="M78 1432h676v-232h-54q-56 0 -70 -21.5t-14 -80.5v-785q0 -44 17 -63t76 -19h45v-231h-676v231h47q33 0 52 4.5t27 18.5t9.5 26.5t1.5 43.5v788q0 28 -1.5 40t-10.5 25.5t-29 18t-55 4.5h-41v232zM176 1858q62 0 106 -44.5t44 -107.5t-44 -107t-106 -44q-63 0 -107 44
t-44 107t44 107.5t107 44.5zM660 1858q62 0 105.5 -44.5t43.5 -107.5t-43.5 -107t-105.5 -44q-63 0 -107.5 44t-44.5 107t44.5 107.5t107.5 44.5z" />
    <glyph glyph-name="Eth" unicode="&#xd0;" horiz-adv-x="1579" 
d="M223 592h-137v250h137v262q0 30 -1.5 43t-9.5 28t-26.5 20t-50.5 5h-49v232h686q191 0 322 -46.5t227 -156.5q168 -194 168 -508q0 -115 -24.5 -219.5t-77 -197t-129.5 -159.5t-188.5 -106t-246.5 -39h-737v231h35q67 0 84.5 16.5t17.5 69.5v275zM823 592h-213v-316h111
q346 0 346 429q0 85 -12 153t-31 113.5t-48.5 79t-59 52t-67.5 29.5t-68 14t-68 3h-103v-307h213v-250z" />
    <glyph glyph-name="Ntilde" unicode="&#xd1;" horiz-adv-x="1579" 
d="M84 1432h592l364 -824h4v496q0 57 -17 76.5t-79 19.5h-35v232h594v-232h-55q-31 0 -48.5 -5t-25 -20t-9 -28t-1.5 -43v-1116h-393l-424 899h-4v-572q0 -24 2 -36t10.5 -25t28 -18t53.5 -5h43v-231h-600v231h41q66 0 82 17.5t16 66.5v789q0 27 -1.5 39.5t-9.5 28t-28 22
t-53 6.5h-47v232zM1061 1845h194q1 -140 -66 -215t-171 -75q-74 0 -168 38q-117 43 -145 43q-33 0 -47.5 -24t-14.5 -57h-196q0 70 15.5 124t39 84t55.5 49t60 25t57 6q85 0 256 -63q45 -15 67 -15q9 0 16 1.5t18.5 8t19.5 24.5t10 46z" />
    <glyph glyph-name="Ograve" unicode="&#xd2;" horiz-adv-x="1642" 
d="M96 709q0 130 29 244.5t89 211.5t147 166.5t210 108.5t271 39q176 0 312.5 -53.5t221.5 -151t128.5 -229t43.5 -291.5q0 -128 -25 -243t-81 -217.5t-139 -177t-206.5 -118t-275.5 -43.5q-348 0 -536.5 203t-188.5 551zM506 705q0 -472 317 -472q162 0 237 124t75 376
q0 463 -308 463q-64 0 -116 -21.5t-86 -60t-58 -85.5t-37 -104.5t-18.5 -110t-5.5 -109.5zM1032 1555h-264l-236 264h383z" />
    <glyph glyph-name="Oacute" unicode="&#xd3;" horiz-adv-x="1642" 
d="M96 709q0 130 29 244.5t89 211.5t147 166.5t210 108.5t271 39q176 0 312.5 -53.5t221.5 -151t128.5 -229t43.5 -291.5q0 -128 -25 -243t-81 -217.5t-139 -177t-206.5 -118t-275.5 -43.5q-348 0 -536.5 203t-188.5 551zM506 705q0 -472 317 -472q162 0 237 124t75 376
q0 463 -308 463q-64 0 -116 -21.5t-86 -60t-58 -85.5t-37 -104.5t-18.5 -110t-5.5 -109.5zM729 1819h383l-236 -264h-264z" />
    <glyph glyph-name="Ocircumflex" unicode="&#xd4;" horiz-adv-x="1642" 
d="M96 709q0 130 29 244.5t89 211.5t147 166.5t210 108.5t271 39q176 0 312.5 -53.5t221.5 -151t128.5 -229t43.5 -291.5q0 -128 -25 -243t-81 -217.5t-139 -177t-206.5 -118t-275.5 -43.5q-348 0 -536.5 203t-188.5 551zM506 705q0 -472 317 -472q162 0 237 124t75 376
q0 463 -308 463q-64 0 -116 -21.5t-86 -60t-58 -85.5t-37 -104.5t-18.5 -110t-5.5 -109.5zM633 1819h376l195 -264h-293l-90 118l-90 -118h-291z" />
    <glyph glyph-name="Otilde" unicode="&#xd5;" horiz-adv-x="1642" 
d="M96 709q0 130 29 244.5t89 211.5t147 166.5t210 108.5t271 39q176 0 312.5 -53.5t221.5 -151t128.5 -229t43.5 -291.5q0 -128 -25 -243t-81 -217.5t-139 -177t-206.5 -118t-275.5 -43.5q-348 0 -536.5 203t-188.5 551zM506 705q0 -472 317 -472q162 0 237 124t75 376
q0 463 -308 463q-64 0 -116 -21.5t-86 -60t-58 -85.5t-37 -104.5t-18.5 -110t-5.5 -109.5zM1032 1845h194q1 -140 -66 -215t-171 -75q-74 0 -168 38q-117 43 -145 43q-33 0 -47.5 -24t-14.5 -57h-196q0 70 15.5 124t39 84t55.5 49t60 25t57 6q85 0 256 -63q45 -15 67 -15
q9 0 16 1.5t18.5 8t19.5 24.5t10 46z" />
    <glyph glyph-name="Odieresis" unicode="&#xd6;" horiz-adv-x="1642" 
d="M96 709q0 130 29 244.5t89 211.5t147 166.5t210 108.5t271 39q176 0 312.5 -53.5t221.5 -151t128.5 -229t43.5 -291.5q0 -128 -25 -243t-81 -217.5t-139 -177t-206.5 -118t-275.5 -43.5q-348 0 -536.5 203t-188.5 551zM506 705q0 -472 317 -472q162 0 237 124t75 376
q0 463 -308 463q-64 0 -116 -21.5t-86 -60t-58 -85.5t-37 -104.5t-18.5 -110t-5.5 -109.5zM581 1858q62 0 106 -44.5t44 -107.5t-44 -107t-106 -44q-63 0 -107 44t-44 107t44 107.5t107 44.5zM1065 1858q62 0 105.5 -44.5t43.5 -107.5t-43.5 -107t-105.5 -44
q-63 0 -107.5 44t-44.5 107t44.5 107.5t107.5 44.5z" />
    <glyph glyph-name="multiply" unicode="&#xd7;" 
d="M123 1022l229 227l330 -329l330 329l231 -229l-330 -330l328 -325l-229 -230l-328 326l-326 -326l-229 230l326 325z" />
    <glyph glyph-name="Oslash" unicode="&#xd8;" horiz-adv-x="1642" 
d="M393 68l-153 -168l-183 168l162 174q-123 186 -123 471q0 128 29 242.5t89 210.5t147 165.5t209 108.5t268 39q243 0 419 -105l144 156l184 -170l-151 -164q26 -45 40 -74.5t34.5 -85t30 -125.5t9.5 -155q0 -174 -46 -319.5t-135 -253.5t-227 -168t-313 -60
q-266 0 -434 113zM1126 862l-508 -553q72 -78 209 -78q74 0 130 30t88.5 76.5t53 112.5t27.5 128.5t7 134.5q0 77 -7 149zM516 565l510 555q-33 26 -52 38.5t-58.5 25t-88.5 12.5q-75 0 -133 -30t-92.5 -77.5t-57 -115.5t-30.5 -135t-8 -144q0 -61 10 -129z" />
    <glyph glyph-name="Ugrave" unicode="&#xd9;" horiz-adv-x="1579" 
d="M63 1432h676v-232h-51q-61 0 -74.5 -20t-13.5 -82v-570q0 -29 0.5 -45.5t4.5 -48.5t11.5 -52t23.5 -45t38 -39.5t57.5 -25t79.5 -10.5q40 0 72.5 7.5t54.5 23t38.5 31.5t26 40.5t15.5 42.5t8.5 45t3 40.5t0.5 35.5v570q0 30 -1.5 43.5t-9 30t-26 22.5t-49.5 6h-51v232
h619v-232h-48q-62 0 -75 -18t-13 -76v-578q0 -62 -5 -115t-20.5 -113.5t-41 -108.5t-69.5 -93.5t-102.5 -75.5t-143 -48.5t-189.5 -18.5q-298 0 -453 131.5t-155 425.5v594q0 26 -1.5 38.5t-8.5 28t-24 21.5t-46 6h-58v232zM1000 1555h-264l-236 264h383z" />
    <glyph glyph-name="Uacute" unicode="&#xda;" horiz-adv-x="1579" 
d="M63 1432h676v-232h-51q-61 0 -74.5 -20t-13.5 -82v-570q0 -29 0.5 -45.5t4.5 -48.5t11.5 -52t23.5 -45t38 -39.5t57.5 -25t79.5 -10.5q40 0 72.5 7.5t54.5 23t38.5 31.5t26 40.5t15.5 42.5t8.5 45t3 40.5t0.5 35.5v570q0 30 -1.5 43.5t-9 30t-26 22.5t-49.5 6h-51v232
h619v-232h-48q-62 0 -75 -18t-13 -76v-578q0 -62 -5 -115t-20.5 -113.5t-41 -108.5t-69.5 -93.5t-102.5 -75.5t-143 -48.5t-189.5 -18.5q-298 0 -453 131.5t-155 425.5v594q0 26 -1.5 38.5t-8.5 28t-24 21.5t-46 6h-58v232zM697 1819h383l-236 -264h-264z" />
    <glyph glyph-name="Ucircumflex" unicode="&#xdb;" horiz-adv-x="1579" 
d="M63 1432h676v-232h-51q-61 0 -74.5 -20t-13.5 -82v-570q0 -29 0.5 -45.5t4.5 -48.5t11.5 -52t23.5 -45t38 -39.5t57.5 -25t79.5 -10.5q40 0 72.5 7.5t54.5 23t38.5 31.5t26 40.5t15.5 42.5t8.5 45t3 40.5t0.5 35.5v570q0 30 -1.5 43.5t-9 30t-26 22.5t-49.5 6h-51v232
h619v-232h-48q-62 0 -75 -18t-13 -76v-578q0 -62 -5 -115t-20.5 -113.5t-41 -108.5t-69.5 -93.5t-102.5 -75.5t-143 -48.5t-189.5 -18.5q-298 0 -453 131.5t-155 425.5v594q0 26 -1.5 38.5t-8.5 28t-24 21.5t-46 6h-58v232zM601 1819h376l195 -264h-293l-90 118l-90 -118
h-291z" />
    <glyph glyph-name="Udieresis" unicode="&#xdc;" horiz-adv-x="1579" 
d="M63 1432h676v-232h-51q-61 0 -74.5 -20t-13.5 -82v-570q0 -29 0.5 -45.5t4.5 -48.5t11.5 -52t23.5 -45t38 -39.5t57.5 -25t79.5 -10.5q40 0 72.5 7.5t54.5 23t38.5 31.5t26 40.5t15.5 42.5t8.5 45t3 40.5t0.5 35.5v570q0 30 -1.5 43.5t-9 30t-26 22.5t-49.5 6h-51v232
h619v-232h-48q-62 0 -75 -18t-13 -76v-578q0 -62 -5 -115t-20.5 -113.5t-41 -108.5t-69.5 -93.5t-102.5 -75.5t-143 -48.5t-189.5 -18.5q-298 0 -453 131.5t-155 425.5v594q0 26 -1.5 38.5t-8.5 28t-24 21.5t-46 6h-58v232zM549 1858q62 0 106 -44.5t44 -107.5t-44 -107
t-106 -44q-63 0 -107 44t-44 107t44 107.5t107 44.5zM1033 1858q62 0 105.5 -44.5t43.5 -107.5t-43.5 -107t-105.5 -44q-63 0 -107.5 44t-44.5 107t44.5 107.5t107.5 44.5z" />
    <glyph glyph-name="Yacute" unicode="&#xdd;" horiz-adv-x="1472" 
d="M23 1432h659v-232h-19.5t-17 -2t-17 -5.5t-9.5 -11t-5 -18.5q0 -20 25 -55l135 -203l129 191q31 48 31 69q0 13 -6.5 21t-20 10.5t-19.5 3t-20 0.5v232h580v-232q-28 0 -40.5 -1.5t-31 -9.5t-33.5 -26.5t-34 -50.5l-375 -547v-256q0 -24 1.5 -34.5t10 -23t28.5 -16.5
t54 -4h53v-231h-694v231h57q34 0 53.5 4.5t28 16.5t10 22.5t1.5 34.5v256l-367 543q-1 1 -3.5 4.5t-4.5 5.5q-31 49 -61.5 65.5t-77.5 16.5v232zM643 1819h383l-236 -264h-264z" />
    <glyph glyph-name="Thorn" unicode="&#xde;" horiz-adv-x="1323" 
d="M80 1432h676v-207h-56q-72 0 -88 -11.5t-16 -64.5v-43h160q144 0 217 -14.5t129 -51.5q50 -32 85 -75.5t50.5 -89.5t21 -81.5t5.5 -70.5q0 -107 -44 -203t-128 -145q-100 -56 -261 -56h-235v-45q0 -46 14.5 -58.5t65.5 -12.5h80v-203h-676v223h53q31 0 48.5 4t25 17.5
t9 25.5t1.5 41v807q0 58 -15 74t-79 16h-43v224zM596 887v-344h100q93 0 145 37t52 133q0 36 -8.5 64.5t-20.5 46.5t-32 30.5t-36 19t-40 9.5t-36 3.5t-32 0.5h-92z" />
    <glyph glyph-name="germandbls" unicode="&#xdf;" horiz-adv-x="1300" 
d="M23 0v213h57q30 0 46.5 4.5t24.5 18.5t9.5 27.5t1.5 41.5v731q0 105 31.5 185.5t81.5 128.5t121 78t139.5 40.5t146.5 10.5q240 0 356 -93q56 -44 88.5 -111.5t32.5 -148.5q0 -134 -80 -227q-51 -59 -137 -90v-4q31 -4 59 -11.5t73.5 -32.5t77.5 -61.5t56.5 -105.5
t24.5 -158q0 -33 -3.5 -67t-15 -80t-30 -86.5t-52 -81t-78 -69.5t-110.5 -47.5t-147 -18.5q-74 0 -156 20v264q35 -14 64 -14q118 0 118 195q0 43 -6 77t-13.5 55.5t-23 37t-27 22.5t-33 11t-33 4.5t-34.5 0.5v263q24 2 35.5 3.5t31 10.5t29 24t17.5 45.5t8 73.5
q0 146 -110 146q-28 0 -48.5 -7.5t-32.5 -23.5t-19.5 -31t-10.5 -41.5t-3.5 -41.5t-0.5 -44v-1036h-526z" />
    <glyph glyph-name="agrave" unicode="&#xe0;" horiz-adv-x="1236" 
d="M164 680v246q204 129 473 129q70 0 129.5 -9.5t118.5 -34t100 -63t66.5 -102t25.5 -146.5v-340q0 -22 0.5 -33.5t4 -30t10.5 -28t21 -17t34 -7.5q18 0 59 14v-223q-56 -25 -140 -45.5t-142 -20.5q-53 0 -91.5 13t-60 37t-29 38t-16.5 37q-145 -125 -332 -125
q-61 0 -111 13t-82 33t-56 48.5t-36 54.5t-19.5 56t-9 48t-1.5 36q0 55 17.5 103t43 79.5t59 56t59.5 37t50 19.5q145 44 158 47l229 51q0 33 -1 50.5t-7 46.5t-18.5 44t-37 27t-59.5 12q-31 0 -53.5 -10.5t-34 -23.5t-18.5 -37.5t-8.5 -38.5t-3.5 -41h-291zM696 383v102
q-47 -12 -80.5 -23t-67 -27.5t-54 -35t-33 -44.5t-12.5 -58q0 -50 30.5 -82.5t75.5 -32.5q38 0 65.5 17t41.5 39.5t22.5 54t10 51t1.5 39.5zM830 1174h-264l-236 264h383z" />
    <glyph glyph-name="aacute" unicode="&#xe1;" horiz-adv-x="1236" 
d="M164 680v246q204 129 473 129q70 0 129.5 -9.5t118.5 -34t100 -63t66.5 -102t25.5 -146.5v-340q0 -22 0.5 -33.5t4 -30t10.5 -28t21 -17t34 -7.5q18 0 59 14v-223q-56 -25 -140 -45.5t-142 -20.5q-53 0 -91.5 13t-60 37t-29 38t-16.5 37q-145 -125 -332 -125
q-61 0 -111 13t-82 33t-56 48.5t-36 54.5t-19.5 56t-9 48t-1.5 36q0 55 17.5 103t43 79.5t59 56t59.5 37t50 19.5q145 44 158 47l229 51q0 33 -1 50.5t-7 46.5t-18.5 44t-37 27t-59.5 12q-31 0 -53.5 -10.5t-34 -23.5t-18.5 -37.5t-8.5 -38.5t-3.5 -41h-291zM696 383v102
q-47 -12 -80.5 -23t-67 -27.5t-54 -35t-33 -44.5t-12.5 -58q0 -50 30.5 -82.5t75.5 -32.5q38 0 65.5 17t41.5 39.5t22.5 54t10 51t1.5 39.5zM527 1438h383l-236 -264h-264z" />
    <glyph glyph-name="acircumflex" unicode="&#xe2;" horiz-adv-x="1236" 
d="M164 680v246q204 129 473 129q70 0 129.5 -9.5t118.5 -34t100 -63t66.5 -102t25.5 -146.5v-340q0 -22 0.5 -33.5t4 -30t10.5 -28t21 -17t34 -7.5q18 0 59 14v-223q-56 -25 -140 -45.5t-142 -20.5q-53 0 -91.5 13t-60 37t-29 38t-16.5 37q-145 -125 -332 -125
q-61 0 -111 13t-82 33t-56 48.5t-36 54.5t-19.5 56t-9 48t-1.5 36q0 55 17.5 103t43 79.5t59 56t59.5 37t50 19.5q145 44 158 47l229 51q0 33 -1 50.5t-7 46.5t-18.5 44t-37 27t-59.5 12q-31 0 -53.5 -10.5t-34 -23.5t-18.5 -37.5t-8.5 -38.5t-3.5 -41h-291zM696 383v102
q-47 -12 -80.5 -23t-67 -27.5t-54 -35t-33 -44.5t-12.5 -58q0 -50 30.5 -82.5t75.5 -32.5q38 0 65.5 17t41.5 39.5t22.5 54t10 51t1.5 39.5zM431 1438h376l195 -264h-293l-90 118l-90 -118h-291z" />
    <glyph glyph-name="atilde" unicode="&#xe3;" horiz-adv-x="1236" 
d="M164 680v246q204 129 473 129q70 0 129.5 -9.5t118.5 -34t100 -63t66.5 -102t25.5 -146.5v-340q0 -22 0.5 -33.5t4 -30t10.5 -28t21 -17t34 -7.5q18 0 59 14v-223q-56 -25 -140 -45.5t-142 -20.5q-53 0 -91.5 13t-60 37t-29 38t-16.5 37q-145 -125 -332 -125
q-61 0 -111 13t-82 33t-56 48.5t-36 54.5t-19.5 56t-9 48t-1.5 36q0 55 17.5 103t43 79.5t59 56t59.5 37t50 19.5q145 44 158 47l229 51q0 33 -1 50.5t-7 46.5t-18.5 44t-37 27t-59.5 12q-31 0 -53.5 -10.5t-34 -23.5t-18.5 -37.5t-8.5 -38.5t-3.5 -41h-291zM696 383v102
q-47 -12 -80.5 -23t-67 -27.5t-54 -35t-33 -44.5t-12.5 -58q0 -50 30.5 -82.5t75.5 -32.5q38 0 65.5 17t41.5 39.5t22.5 54t10 51t1.5 39.5zM830 1464h194q1 -140 -66 -215t-171 -75q-74 0 -168 38q-117 43 -145 43q-33 0 -47.5 -24t-14.5 -57h-196q0 70 15.5 124t39 84
t55.5 49t60 25t57 6q85 0 256 -63q45 -15 67 -15q9 0 16 1.5t18.5 8t19.5 24.5t10 46z" />
    <glyph glyph-name="adieresis" unicode="&#xe4;" horiz-adv-x="1236" 
d="M164 680v246q204 129 473 129q70 0 129.5 -9.5t118.5 -34t100 -63t66.5 -102t25.5 -146.5v-340q0 -22 0.5 -33.5t4 -30t10.5 -28t21 -17t34 -7.5q18 0 59 14v-223q-56 -25 -140 -45.5t-142 -20.5q-53 0 -91.5 13t-60 37t-29 38t-16.5 37q-145 -125 -332 -125
q-61 0 -111 13t-82 33t-56 48.5t-36 54.5t-19.5 56t-9 48t-1.5 36q0 55 17.5 103t43 79.5t59 56t59.5 37t50 19.5q145 44 158 47l229 51q0 33 -1 50.5t-7 46.5t-18.5 44t-37 27t-59.5 12q-31 0 -53.5 -10.5t-34 -23.5t-18.5 -37.5t-8.5 -38.5t-3.5 -41h-291zM696 383v102
q-47 -12 -80.5 -23t-67 -27.5t-54 -35t-33 -44.5t-12.5 -58q0 -50 30.5 -82.5t75.5 -32.5q38 0 65.5 17t41.5 39.5t22.5 54t10 51t1.5 39.5zM379 1477q62 0 106 -44.5t44 -107.5t-44 -107t-106 -44q-63 0 -107 44t-44 107t44 107.5t107 44.5zM863 1477q62 0 105.5 -44.5
t43.5 -107.5t-43.5 -107t-105.5 -44q-63 0 -107.5 44t-44.5 107t44.5 107.5t107.5 44.5z" />
    <glyph glyph-name="aring" unicode="&#xe5;" horiz-adv-x="1236" 
d="M164 680v246q204 129 473 129q70 0 129.5 -9.5t118.5 -34t100 -63t66.5 -102t25.5 -146.5v-340q0 -22 0.5 -33.5t4 -30t10.5 -28t21 -17t34 -7.5q18 0 59 14v-223q-56 -25 -140 -45.5t-142 -20.5q-53 0 -91.5 13t-60 37t-29 38t-16.5 37q-145 -125 -332 -125
q-61 0 -111 13t-82 33t-56 48.5t-36 54.5t-19.5 56t-9 48t-1.5 36q0 55 17.5 103t43 79.5t59 56t59.5 37t50 19.5q145 44 158 47l229 51q0 33 -1 50.5t-7 46.5t-18.5 44t-37 27t-59.5 12q-31 0 -53.5 -10.5t-34 -23.5t-18.5 -37.5t-8.5 -38.5t-3.5 -41h-291zM696 383v102
q-47 -12 -80.5 -23t-67 -27.5t-54 -35t-33 -44.5t-12.5 -58q0 -50 30.5 -82.5t75.5 -32.5q38 0 65.5 17t41.5 39.5t22.5 54t10 51t1.5 39.5zM621 1612q90 0 154.5 -63.5t64.5 -155.5t-64.5 -155.5t-154.5 -63.5q-91 0 -156 64t-65 155q0 92 65 155.5t156 63.5zM619 1487
q-38 0 -65 -28t-27 -66q0 -37 27 -65t65 -28t66 27.5t28 65.5q0 39 -27.5 66.5t-66.5 27.5z" />
    <glyph glyph-name="ae" unicode="&#xe6;" horiz-adv-x="1705" 
d="M156 678v248q188 129 458 129q64 0 115 -7.5t88 -22.5t52.5 -23t39.5 -23q115 76 273 76q75 0 138.5 -16t107.5 -44.5t80 -66t57 -81t37.5 -89.5t22 -91.5t10.5 -87t3 -75.5t0 -58h-606q21 -92 85.5 -139t154.5 -47q63 0 130.5 16t107 32.5t98.5 43.5v-280
q-116 -50 -212.5 -76.5t-219.5 -26.5q-82 0 -144 11t-107 34.5t-73.5 47t-63.5 61.5q-29 -26 -47.5 -41t-57.5 -39.5t-77 -38t-96.5 -24.5t-124.5 -11q-78 0 -136.5 21t-91 51t-52 71.5t-25.5 74.5t-6 67q0 86 28.5 144t103.5 104.5t187 79.5t297 69q0 24 -1 40t-7.5 46
t-18 48.5t-36.5 33.5t-60 15q-33 0 -57 -12t-36 -27.5t-19 -40.5t-8.5 -39.5t-2.5 -36.5h-288zM690 381v102q-250 -53 -250 -188q0 -42 28.5 -77.5t78.5 -35.5q29 0 52.5 10t38.5 24t25.5 35t15.5 38t7.5 39t3 31.5t0.5 21.5zM1026 641h264q-2 32 -4.5 51.5t-10.5 48.5
t-20.5 45t-35.5 28.5t-54 12.5q-24 0 -43.5 -7.5t-32.5 -16.5t-24 -27.5t-16.5 -31t-11 -36.5t-7 -34t-4.5 -33z" />
    <glyph glyph-name="ccedilla" unicode="&#xe7;" horiz-adv-x="1087" 
d="M647 -35l-14 -55q176 -25 176 -174q0 -104 -83 -161.5t-214 -57.5q-123 0 -229 34v162q134 -39 194 -39q123 0 123 62q0 31 -30 44t-64 13q-28 0 -72 -6l49 182q-32 7 -45 9.5t-46.5 13.5t-56 22.5t-53 33.5t-57.5 50q-143 147 -143 391q0 256 148 414t401 158
q194 0 370 -88v-385h-286v98q0 22 -0.5 33.5t-5.5 33t-14.5 33.5t-29 21.5t-47.5 9.5q-83 0 -127.5 -75.5t-44.5 -182.5q0 -78 22 -136t59 -89.5t78.5 -46.5t88.5 -15q143 0 295 80v-282q-91 -52 -165.5 -73.5t-176.5 -31.5z" />
    <glyph glyph-name="egrave" unicode="&#xe8;" horiz-adv-x="1153" 
d="M1073 453h-604q12 -90 80 -143.5t162 -53.5q60 0 121.5 14t101.5 30t113 48v-280q-224 -105 -439 -105q-278 0 -405 156q-125 148 -125 375q0 82 18 161t58.5 153.5t99.5 130t148 89t196 33.5q496 0 475 -608zM465 645h262q1 28 -3.5 57t-17 61t-39.5 52.5t-65 20.5
q-51 0 -92 -46t-45 -145zM787 1174h-264l-236 264h383z" />
    <glyph glyph-name="eacute" unicode="&#xe9;" horiz-adv-x="1153" 
d="M1073 453h-604q12 -90 80 -143.5t162 -53.5q60 0 121.5 14t101.5 30t113 48v-280q-224 -105 -439 -105q-278 0 -405 156q-125 148 -125 375q0 82 18 161t58.5 153.5t99.5 130t148 89t196 33.5q496 0 475 -608zM465 645h262q1 28 -3.5 57t-17 61t-39.5 52.5t-65 20.5
q-51 0 -92 -46t-45 -145zM484 1438h383l-236 -264h-264z" />
    <glyph glyph-name="ecircumflex" unicode="&#xea;" horiz-adv-x="1153" 
d="M1073 453h-604q12 -90 80 -143.5t162 -53.5q60 0 121.5 14t101.5 30t113 48v-280q-224 -105 -439 -105q-278 0 -405 156q-125 148 -125 375q0 82 18 161t58.5 153.5t99.5 130t148 89t196 33.5q496 0 475 -608zM465 645h262q1 28 -3.5 57t-17 61t-39.5 52.5t-65 20.5
q-51 0 -92 -46t-45 -145zM388 1438h376l195 -264h-293l-90 118l-90 -118h-291z" />
    <glyph glyph-name="edieresis" unicode="&#xeb;" horiz-adv-x="1153" 
d="M1073 453h-604q12 -90 80 -143.5t162 -53.5q60 0 121.5 14t101.5 30t113 48v-280q-224 -105 -439 -105q-278 0 -405 156q-125 148 -125 375q0 82 18 161t58.5 153.5t99.5 130t148 89t196 33.5q496 0 475 -608zM465 645h262q1 28 -3.5 57t-17 61t-39.5 52.5t-65 20.5
q-51 0 -92 -46t-45 -145zM336 1477q62 0 106 -44.5t44 -107.5t-44 -107t-106 -44q-63 0 -107 44t-44 107t44 107.5t107 44.5zM820 1477q62 0 105.5 -44.5t43.5 -107.5t-43.5 -107t-105.5 -44q-63 0 -107.5 44t-44.5 107t44.5 107.5t107.5 44.5z" />
    <glyph glyph-name="igrave" unicode="&#xec;" horiz-adv-x="704" 
d="M47 791v213l508 40v-735q0 -64 18.5 -80t98.5 -16v-213h-625v213q35 1 49 1.5t32.5 4.5t23 9.5t11 19t7 30t0.5 46.5v383q0 46 -12 65t-56 19h-55zM563 1174h-264l-236 264h383z" />
    <glyph glyph-name="iacute" unicode="&#xed;" horiz-adv-x="704" 
d="M47 791v213l508 40v-735q0 -64 18.5 -80t98.5 -16v-213h-625v213q35 1 49 1.5t32.5 4.5t23 9.5t11 19t7 30t0.5 46.5v383q0 46 -12 65t-56 19h-55zM260 1438h383l-236 -264h-264z" />
    <glyph glyph-name="icircumflex" unicode="&#xee;" horiz-adv-x="704" 
d="M47 791v213l508 40v-735q0 -64 18.5 -80t98.5 -16v-213h-625v213q35 1 49 1.5t32.5 4.5t23 9.5t11 19t7 30t0.5 46.5v383q0 46 -12 65t-56 19h-55zM164 1438h376l195 -264h-293l-90 118l-90 -118h-291z" />
    <glyph glyph-name="idieresis" unicode="&#xef;" horiz-adv-x="704" 
d="M47 791v213l508 40v-735q0 -64 18.5 -80t98.5 -16v-213h-625v213q35 1 49 1.5t32.5 4.5t23 9.5t11 19t7 30t0.5 46.5v383q0 46 -12 65t-56 19h-55zM112 1477q62 0 106 -44.5t44 -107.5t-44 -107t-106 -44q-63 0 -107 44t-44 107t44 107.5t107 44.5zM596 1477
q62 0 105.5 -44.5t43.5 -107.5t-43.5 -107t-105.5 -44q-63 0 -107.5 44t-44.5 107t44.5 107.5t107.5 44.5z" />
    <glyph glyph-name="eth" unicode="&#xf0;" horiz-adv-x="1259" 
d="M614 1382l158 119l117 -158l-105 -77q36 -30 59 -50.5t66.5 -65t72.5 -83.5t65 -99.5t57.5 -121.5t37 -140.5t15.5 -164.5q0 -270 -145 -424q-72 -76 -170 -115t-248 -39q-148 0 -237 35t-148 94q-135 141 -135 357q0 66 14.5 130t49.5 126.5t86.5 109.5t133 76t181.5 29
q63 0 157 -21q-45 76 -74 114t-71 77l-162 -123l-115 159l121 91q-32 24 -100 69l131 193q83 -37 188 -97zM457 449q0 -114 42 -171t111 -57q158 0 158 260q0 213 -147 213q-84 0 -124 -67.5t-40 -177.5z" />
    <glyph glyph-name="ntilde" unicode="&#xf1;" horiz-adv-x="1343" 
d="M53 995l486 37q16 -58 18 -145h4q9 17 19 33t36 42.5t57 45t81.5 33t109.5 14.5q105 0 183 -45.5t112 -126.5q23 -54 28 -105t5 -164v-262q0 -52 2 -75t15 -40.5t33.5 -20.5t64.5 -3v-213h-519v532q0 45 -0.5 66.5t-3 54t-9 47.5t-17 32t-28 23.5t-42.5 6.5
q-27 0 -48 -9.5t-34 -23t-22.5 -36.5t-14 -41.5t-7 -47.5t-3 -44t-0.5 -42v-151q0 -77 1.5 -96.5t8.5 -32.5q7 -15 25 -18.5t90 -6.5v-213h-631v213q36 1 50.5 1t32.5 5.5t22 10.5t10 22t6 34v52v250q0 139 -8 167.5t-53 28.5h-60v211zM883 1464h194q1 -140 -66 -215
t-171 -75q-74 0 -168 38q-117 43 -145 43q-33 0 -47.5 -24t-14.5 -57h-196q0 70 15.5 124t39 84t55.5 49t60 25t57 6q85 0 256 -63q45 -15 67 -15q9 0 16 1.5t18.5 8t19.5 24.5t10 46z" />
    <glyph glyph-name="ograve" unicode="&#xf2;" horiz-adv-x="1236" 
d="M1161 549q0 -262 -137 -420q-28 -32 -59 -57t-81 -52t-123 -42t-163 -15q-124 0 -220 37t-151.5 92t-91 129.5t-47.5 139.5t-12 131q0 77 15.5 151t55 151.5t100 135t158.5 94.5t222 37q258 0 396 -139t138 -373zM774 532q0 24 -0.5 39t-3 47t-8 53.5t-17 49t-27 44
t-40.5 28.5t-57 12q-162 0 -162 -303q0 -279 166 -279q83 0 116 77t33 232zM830 1174h-264l-236 264h383z" />
    <glyph glyph-name="oacute" unicode="&#xf3;" horiz-adv-x="1236" 
d="M1161 549q0 -262 -137 -420q-28 -32 -59 -57t-81 -52t-123 -42t-163 -15q-124 0 -220 37t-151.5 92t-91 129.5t-47.5 139.5t-12 131q0 77 15.5 151t55 151.5t100 135t158.5 94.5t222 37q258 0 396 -139t138 -373zM774 532q0 24 -0.5 39t-3 47t-8 53.5t-17 49t-27 44
t-40.5 28.5t-57 12q-162 0 -162 -303q0 -279 166 -279q83 0 116 77t33 232zM527 1438h383l-236 -264h-264z" />
    <glyph glyph-name="ocircumflex" unicode="&#xf4;" horiz-adv-x="1236" 
d="M1161 549q0 -262 -137 -420q-28 -32 -59 -57t-81 -52t-123 -42t-163 -15q-124 0 -220 37t-151.5 92t-91 129.5t-47.5 139.5t-12 131q0 77 15.5 151t55 151.5t100 135t158.5 94.5t222 37q258 0 396 -139t138 -373zM774 532q0 24 -0.5 39t-3 47t-8 53.5t-17 49t-27 44
t-40.5 28.5t-57 12q-162 0 -162 -303q0 -279 166 -279q83 0 116 77t33 232zM431 1438h376l195 -264h-293l-90 118l-90 -118h-291z" />
    <glyph glyph-name="otilde" unicode="&#xf5;" horiz-adv-x="1236" 
d="M1161 549q0 -262 -137 -420q-28 -32 -59 -57t-81 -52t-123 -42t-163 -15q-124 0 -220 37t-151.5 92t-91 129.5t-47.5 139.5t-12 131q0 77 15.5 151t55 151.5t100 135t158.5 94.5t222 37q258 0 396 -139t138 -373zM774 532q0 24 -0.5 39t-3 47t-8 53.5t-17 49t-27 44
t-40.5 28.5t-57 12q-162 0 -162 -303q0 -279 166 -279q83 0 116 77t33 232zM830 1464h194q1 -140 -66 -215t-171 -75q-74 0 -168 38q-117 43 -145 43q-33 0 -47.5 -24t-14.5 -57h-196q0 70 15.5 124t39 84t55.5 49t60 25t57 6q85 0 256 -63q45 -15 67 -15q9 0 16 1.5t18.5 8
t19.5 24.5t10 46z" />
    <glyph glyph-name="odieresis" unicode="&#xf6;" horiz-adv-x="1236" 
d="M1161 549q0 -262 -137 -420q-28 -32 -59 -57t-81 -52t-123 -42t-163 -15q-124 0 -220 37t-151.5 92t-91 129.5t-47.5 139.5t-12 131q0 77 15.5 151t55 151.5t100 135t158.5 94.5t222 37q258 0 396 -139t138 -373zM774 532q0 24 -0.5 39t-3 47t-8 53.5t-17 49t-27 44
t-40.5 28.5t-57 12q-162 0 -162 -303q0 -279 166 -279q83 0 116 77t33 232zM379 1477q62 0 106 -44.5t44 -107.5t-44 -107t-106 -44q-63 0 -107 44t-44 107t44 107.5t107 44.5zM863 1477q62 0 105.5 -44.5t43.5 -107.5t-43.5 -107t-105.5 -44q-63 0 -107.5 44t-44.5 107
t44.5 107.5t107.5 44.5z" />
    <glyph glyph-name="divide" unicode="&#xf7;" 
d="M868 272q0 -76 -55 -131t-131 -55t-130 54.5t-54 131.5t54 131t130 54q77 0 131.5 -54.5t54.5 -130.5zM868 1118q0 -76 -55 -131t-131 -55t-130 54.5t-54 131.5t54 131t130 54q77 0 131.5 -54.5t54.5 -130.5zM109 848h1148v-307h-1148v307z" />
    <glyph glyph-name="oslash" unicode="&#xf8;" horiz-adv-x="1236" 
d="M1022 1133l166 -152l-113 -127q25 -40 39 -69t29.5 -97.5t15.5 -152.5q0 -123 -34.5 -226t-101.5 -181t-174.5 -121.5t-246.5 -43.5q-71 0 -132 10.5t-84 18.5t-62 24l-111 -125l-166 148l115 131q-43 72 -63.5 141t-20.5 170q0 91 19 174.5t62 158t106 129t156.5 86.5
t207.5 32q162 0 278 -57zM449 471l274 307q-49 39 -98 39q-36 0 -65 -13.5t-47 -33t-31 -52.5t-19 -59t-9.5 -67t-4 -62.5t-0.5 -58.5zM784 553l-268 -303q12 -14 21 -21.5t31 -15.5t50 -8q64 0 103 45t52.5 119.5t10.5 183.5z" />
    <glyph glyph-name="ugrave" unicode="&#xf9;" horiz-adv-x="1343" 
d="M41 1012l516 26v-610q0 -23 0.5 -37.5t6 -42t15.5 -44t30.5 -29.5t49.5 -13q30 0 53 10.5t36.5 32.5t21.5 42.5t11.5 54t4 52t0.5 50.5v180q0 31 -1 45t-5 31t-13.5 23.5t-26.5 11t-44 4.5h-32v213l507 26v-712q0 -66 17.5 -78t105.5 -10v-211l-485 -35q-17 54 -21 141
h-4q-95 -164 -307 -164q-203 0 -291 164q-13 27 -22.5 100.5t-9.5 112.5v352q0 23 -0.5 33.5t-3.5 25t-10 19.5t-19.5 11.5t-32 8.5t-47.5 3v213zM883 1174h-264l-236 264h383z" />
    <glyph glyph-name="uacute" unicode="&#xfa;" horiz-adv-x="1343" 
d="M41 1012l516 26v-610q0 -23 0.5 -37.5t6 -42t15.5 -44t30.5 -29.5t49.5 -13q30 0 53 10.5t36.5 32.5t21.5 42.5t11.5 54t4 52t0.5 50.5v180q0 31 -1 45t-5 31t-13.5 23.5t-26.5 11t-44 4.5h-32v213l507 26v-712q0 -66 17.5 -78t105.5 -10v-211l-485 -35q-17 54 -21 141
h-4q-95 -164 -307 -164q-203 0 -291 164q-13 27 -22.5 100.5t-9.5 112.5v352q0 23 -0.5 33.5t-3.5 25t-10 19.5t-19.5 11.5t-32 8.5t-47.5 3v213zM580 1438h383l-236 -264h-264z" />
    <glyph glyph-name="ucircumflex" unicode="&#xfb;" horiz-adv-x="1343" 
d="M41 1012l516 26v-610q0 -23 0.5 -37.5t6 -42t15.5 -44t30.5 -29.5t49.5 -13q30 0 53 10.5t36.5 32.5t21.5 42.5t11.5 54t4 52t0.5 50.5v180q0 31 -1 45t-5 31t-13.5 23.5t-26.5 11t-44 4.5h-32v213l507 26v-712q0 -66 17.5 -78t105.5 -10v-211l-485 -35q-17 54 -21 141
h-4q-95 -164 -307 -164q-203 0 -291 164q-13 27 -22.5 100.5t-9.5 112.5v352q0 23 -0.5 33.5t-3.5 25t-10 19.5t-19.5 11.5t-32 8.5t-47.5 3v213zM484 1438h376l195 -264h-293l-90 118l-90 -118h-291z" />
    <glyph glyph-name="udieresis" unicode="&#xfc;" horiz-adv-x="1343" 
d="M41 1012l516 26v-610q0 -23 0.5 -37.5t6 -42t15.5 -44t30.5 -29.5t49.5 -13q30 0 53 10.5t36.5 32.5t21.5 42.5t11.5 54t4 52t0.5 50.5v180q0 31 -1 45t-5 31t-13.5 23.5t-26.5 11t-44 4.5h-32v213l507 26v-712q0 -66 17.5 -78t105.5 -10v-211l-485 -35q-17 54 -21 141
h-4q-95 -164 -307 -164q-203 0 -291 164q-13 27 -22.5 100.5t-9.5 112.5v352q0 23 -0.5 33.5t-3.5 25t-10 19.5t-19.5 11.5t-32 8.5t-47.5 3v213zM432 1477q62 0 106 -44.5t44 -107.5t-44 -107t-106 -44q-63 0 -107 44t-44 107t44 107.5t107 44.5zM916 1477
q62 0 105.5 -44.5t43.5 -107.5t-43.5 -107t-105.5 -44q-63 0 -107.5 44t-44.5 107t44.5 107.5t107.5 44.5z" />
    <glyph glyph-name="yacute" unicode="&#xfd;" horiz-adv-x="1280" 
d="M23 1026h620v-213q-80 0 -80 -43q0 -14 25 -72l106 -237l105 227q0 4 4 12q18 32 18 66q0 47 -71 47v213h510v-213q-19 -1 -30 -4t-30 -21.5t-35 -52.5l-454 -958q-36 -77 -81.5 -129t-95 -76.5t-92.5 -33.5t-94 -9q-122 0 -266 55v316h197l1.5 -27t4.5 -25t10.5 -24.5
t19 -15.5t29.5 -7q23 0 40 12.5t42.5 57t58.5 129.5l-338 698q-37 77 -61 96t-63 19v213zM547 1438h383l-236 -264h-264z" />
    <glyph glyph-name="thorn" unicode="&#xfe;" horiz-adv-x="1300" 
d="M539 68v-195q0 -56 18.5 -74t83.5 -18h37v-211h-645v211q83 0 102 16t19 86v471v731q0 93 -5 114t-32 28q-9 2 -84 2v211l506 39v-592h4q19 32 36.5 54.5t51.5 52t84.5 45.5t113.5 16q91 0 162 -34t113.5 -86.5t69.5 -123t37 -135t10 -131.5q0 -105 -25.5 -204.5
t-75 -184t-134.5 -136t-193 -51.5q-59 0 -111.5 17.5t-78 34.5t-64.5 47zM811 500q0 250 -137 250q-31 0 -55.5 -13t-40 -31.5t-26.5 -47t-16 -51t-8 -52.5t-3.5 -43t-0.5 -29q0 -75 14.5 -127.5t39 -76.5t46.5 -33.5t46 -9.5q33 0 58.5 15t40 42.5t24 54t13 61t4.5 52.5
t1 39z" />
    <glyph glyph-name="ydieresis" unicode="&#xff;" horiz-adv-x="1280" 
d="M23 1026h620v-213q-80 0 -80 -43q0 -14 25 -72l106 -237l105 227q0 4 4 12q18 32 18 66q0 47 -71 47v213h510v-213q-19 -1 -30 -4t-30 -21.5t-35 -52.5l-454 -958q-36 -77 -81.5 -129t-95 -76.5t-92.5 -33.5t-94 -9q-122 0 -266 55v316h197l1.5 -27t4.5 -25t10.5 -24.5
t19 -15.5t29.5 -7q23 0 40 12.5t42.5 57t58.5 129.5l-338 698q-37 77 -61 96t-63 19v213zM399 1477q62 0 106 -44.5t44 -107.5t-44 -107t-106 -44q-63 0 -107 44t-44 107t44 107.5t107 44.5zM883 1477q62 0 105.5 -44.5t43.5 -107.5t-43.5 -107t-105.5 -44q-63 0 -107.5 44
t-44.5 107t44.5 107.5t107.5 44.5z" />
    <glyph glyph-name="dotlessi" unicode="&#x131;" horiz-adv-x="704" 
d="M47 791v213l508 40v-735q0 -64 18.5 -80t98.5 -16v-213h-625v213q35 1 49 1.5t32.5 4.5t23 9.5t11 19t7 30t0.5 46.5v383q0 46 -12 65t-56 19h-55z" />
    <glyph glyph-name="Lslash" unicode="&#x141;" horiz-adv-x="1259" 
d="M219 723v381q0 32 -1.5 45t-10.5 27.5t-28.5 19t-55.5 4.5h-43v232h692v-232h-67q-32 0 -51 -5.5t-27 -20t-9.5 -26.5t-1.5 -38v-119l261 174v-291l-261 -174v-424h199q32 0 51.5 5.5t27.5 19t9.5 24t1.5 31.5v113h295v-469h-1120v231h55q30 0 48.5 6t25.5 20t8.5 25
t1.5 33v115l-139 -92v291z" />
    <glyph glyph-name="lslash" unicode="&#x142;" horiz-adv-x="704" 
d="M700 860l-143 -110v-449q0 -32 1.5 -44.5t13 -25t34 -15.5t66.5 -3v-213h-619v213q83 0 101 15.5t16 72.5v160l-141 -103v277l141 102v416q2 38 -7.5 58.5t-45.5 19.5h-27h-51v211l518 37v-459l143 110v-270z" />
    <glyph glyph-name="OE" unicode="&#x152;" horiz-adv-x="2134" 
d="M2017 1432v-428h-295v55q0 56 -13 75t-69 19h-219v-276h424v-287h-424v-316h228q32 0 45 1.5t27.5 9t19 25t4.5 48.5v82h295v-440h-830q-25 0 -151 -4t-148 -4q-241 0 -379.5 40.5t-238.5 143.5q-102 107 -149.5 247t-47.5 286q0 99 20.5 195.5t77 201.5t144.5 178
q106 89 234 122.5t327 33.5q135 0 201 -4q118 -4 176 -4h741zM1042 375v704q0 28 -1 39.5t-8.5 28t-23.5 22t-45 10.5t-75 5q-145 0 -234 -72q-75 -62 -113 -171.5t-38 -238.5q0 -222 105 -338t311 -116q31 0 51.5 2t34.5 9.5t21 13.5t10.5 25t4 32t0.5 45z" />
    <glyph glyph-name="oe" unicode="&#x153;" horiz-adv-x="1792" 
d="M1690 346v-276q-206 -101 -439 -101q-64 0 -118.5 9t-86 20t-60.5 29.5t-39 27.5t-25 25q-24 -23 -42 -36.5t-56 -34t-94 -30.5t-128 -10q-152 0 -244.5 39t-158.5 117q-123 147 -123 373q0 86 20 165.5t63 151t105 125t153 84.5t201 31q71 0 127 -11t97 -33t59.5 -35
t46.5 -38q74 64 137 90.5t164 26.5q77 0 141.5 -15.5t109.5 -42t81.5 -63t58 -78t39 -87t23 -90.5t11 -87.5t3.5 -78.5t0 -64h-604q10 -53 35.5 -91.5t61 -59.5t71.5 -30.5t74 -9.5q160 0 336 88zM459 500q0 -277 157 -277q32 0 57.5 12t41.5 29.5t27.5 47.5t17 53.5t8.5 62
t3.5 59t0.5 56.5q0 24 -0.5 38t-3 44.5t-8 50.5t-16.5 46.5t-26.5 42t-40.5 27t-56 11.5q-162 0 -162 -303zM1106 643h266q-2 24 -4 37.5t-7 39t-13 41t-21 32.5t-33.5 25.5t-46.5 8.5q-120 0 -140 -178q-1 -4 -1 -6z" />
    <glyph glyph-name="Scaron" unicode="&#x160;" horiz-adv-x="1236" 
d="M1094 1393v-394h-306v78q0 27 -1 43t-8.5 44.5t-22 44.5t-44 29t-71.5 13q-39 0 -67.5 -12.5t-43 -29t-23 -37.5t-10 -33t-1.5 -21q0 -54 41 -95.5t145 -98.5l139 -74q67 -36 109 -62t91 -67.5t76 -83t45.5 -102t18.5 -132.5q0 -197 -137 -323q-64 -59 -159 -92t-253 -33
q-267 0 -495 84v438h317v-69q0 -23 1 -38t5 -43t15 -47t28.5 -39t48 -30t70.5 -10q82 0 121 43.5t39 103.5q0 62 -36.5 106.5t-111.5 84.5q-8 5 -60 33.5t-60 33.5q-204 113 -290.5 221t-86.5 244q0 95 39 174t108 133q126 101 371 101t459 -86zM809 1555h-376l-195 264h293
l90 -119l90 119h291z" />
    <glyph glyph-name="scaron" unicode="&#x161;" horiz-adv-x="1044" 
d="M928 987v-264h-293v29q0 19 -1 31.5t-6.5 30t-16 28t-31.5 18.5t-50 8q-31 0 -52.5 -9t-29.5 -23.5t-11 -24.5t-3 -18q0 -41 28.5 -61.5t117.5 -57.5q50 -20 74 -30t65 -27.5t61 -28t51 -28t46 -31t36 -33t30.5 -38.5t20 -43t14 -50.5t3.5 -57.5q0 -87 -38 -158t-97 -110
q-111 -76 -324 -76q-104 0 -200.5 15.5t-134 26.5t-97.5 32v287h295q4 -77 16 -101q23 -45 93 -45q58 0 80 27t22 59q0 46 -32.5 69.5t-137.5 65.5q-40 16 -65.5 27t-64.5 31t-64.5 37.5t-55 44.5t-46.5 54.5t-28.5 65t-11.5 78.5q0 19 2.5 39.5t12.5 54t27.5 63t51 61
t78 54.5t114 37.5t154.5 14.5q75 0 186 -16.5t212 -57.5zM712 1174h-376l-195 264h293l90 -119l90 119h291z" />
    <glyph glyph-name="Ydieresis" unicode="&#x178;" horiz-adv-x="1472" 
d="M23 1432h659v-232h-19.5t-17 -2t-17 -5.5t-9.5 -11t-5 -18.5q0 -20 25 -55l135 -203l129 191q31 48 31 69q0 13 -6.5 21t-20 10.5t-19.5 3t-20 0.5v232h580v-232q-28 0 -40.5 -1.5t-31 -9.5t-33.5 -26.5t-34 -50.5l-375 -547v-256q0 -24 1.5 -34.5t10 -23t28.5 -16.5
t54 -4h53v-231h-694v231h57q34 0 53.5 4.5t28 16.5t10 22.5t1.5 34.5v256l-367 543q-1 1 -3.5 4.5t-4.5 5.5q-31 49 -61.5 65.5t-77.5 16.5v232zM495 1858q62 0 106 -44.5t44 -107.5t-44 -107t-106 -44q-63 0 -107 44t-44 107t44 107.5t107 44.5zM979 1858q62 0 105.5 -44.5
t43.5 -107.5t-43.5 -107t-105.5 -44q-63 0 -107.5 44t-44.5 107t44.5 107.5t107.5 44.5z" />
    <glyph glyph-name="Zcaron" unicode="&#x17d;" 
d="M119 1432h1132v-281l-688 -875h320q69 0 85.5 17t16.5 69v105h295v-467h-1192v276l684 875h-280q-49 0 -63.5 -17.5t-14.5 -64.5v-96h-295v459zM872 1555h-376l-195 264h293l90 -119l90 119h291z" />
    <glyph glyph-name="zcaron" unicode="&#x17e;" horiz-adv-x="1216" 
d="M104 1026h1012v-252l-573 -520h202q63 0 83 14.5t20 67.5v33h287v-369h-1053v266l569 508h-182q-61 0 -77.5 -17.5t-16.5 -60.5v-34h-271v364zM798 1174h-376l-195 264h293l90 -119l90 119h291z" />
    <glyph glyph-name="florin" unicode="&#x192;" horiz-adv-x="1216" 
d="M1221 1425l-39 -268h-185q2 16 2 43q0 39 -19 55.5t-40 16.5q-54 0 -79.5 -60.5t-37.5 -205.5h181l-39 -263h-160l-51 -596q-3 -47 -10.5 -95t-25 -113t-41.5 -122t-65 -114.5t-91.5 -98.5t-123.5 -67t-159 -26q-25 0 -49 1.5t-46 5t-37.5 6.5t-35.5 9t-28 8.5t-27 9
t-21 7.5l37 274l166 -6q0 -21 -0.5 -40.5t12 -33.5t37.5 -14q24 0 40 10t25.5 34t15 51t12.5 73q1 5 1 8q6 24 6 45l62 784h-172l43 263h151q21 236 151.5 354.5t338.5 118.5q161 0 301 -54z" />
    <glyph glyph-name="circumflex" unicode="&#x2c6;" horiz-adv-x="681" 
d="M152 1438h376l195 -264h-293l-90 118l-90 -118h-291z" />
    <glyph glyph-name="caron" unicode="&#x2c7;" horiz-adv-x="681" 
d="M530 1174h-376l-195 264h293l90 -119l90 119h291z" />
    <glyph glyph-name="breve" unicode="&#x2d8;" horiz-adv-x="681" 
d="M-6 1438h246q6 -43 18 -60q22 -37 82 -37q47 0 73 27t31 70h244q-47 -271 -346 -271q-22 0 -38.5 0.5t-52 6t-62.5 15t-62 29.5t-59.5 48t-45 72.5t-28.5 99.5z" />
    <glyph glyph-name="dotaccent" unicode="&#x2d9;" horiz-adv-x="681" 
d="M342 1477q62 0 106 -44.5t44 -107.5t-44 -107t-106 -44q-63 0 -107.5 44t-44.5 107t44.5 107.5t107.5 44.5z" />
    <glyph glyph-name="ring" unicode="&#x2da;" horiz-adv-x="681" 
d="M342 1612q90 0 154.5 -63.5t64.5 -155.5t-64.5 -155.5t-154.5 -63.5q-91 0 -156 64t-65 155q0 92 65 155.5t156 63.5zM340 1487q-38 0 -65 -28t-27 -66q0 -37 27 -65t65 -28t66 27.5t28 65.5q0 39 -27.5 66.5t-66.5 27.5z" />
    <glyph glyph-name="ogonek" unicode="&#x2db;" horiz-adv-x="681" 
d="M233 20h193q-135 -100 -135 -178q0 -35 26 -59.5t84 -24.5q34 0 88 13v-152q-90 -22 -153 -22q-26 0 -52 3t-64 14.5t-65.5 30.5t-48 56.5t-20.5 87.5q0 123 147 231z" />
    <glyph glyph-name="tilde" unicode="&#x2dc;" horiz-adv-x="681" 
d="M551 1464h194q1 -140 -66 -215t-171 -75q-74 0 -168 38q-117 43 -145 43q-33 0 -47.5 -24t-14.5 -57h-196q0 70 15.5 124t39 84t55.5 49t60 25t57 6q85 0 256 -63q45 -15 67 -15q9 0 16 1.5t18.5 8t19.5 24.5t10 46z" />
    <glyph glyph-name="hungarumlaut" unicode="&#x2dd;" horiz-adv-x="681" 
d="M113 1438h383l-236 -264h-264zM588 1438h383l-236 -264h-264z" />
    <glyph glyph-name="Delta" unicode="&#x394;" horiz-adv-x="1075" 
d="M1034 0h-989l393 1458h213zM727 102l-260 977l-274 -977h534z" />
    <glyph glyph-name="Delta" unicode="&#x2206;" horiz-adv-x="1075" 
d="M1034 0h-989l393 1458h213zM727 102l-260 977l-274 -977h534z" />
    <glyph glyph-name="_03A9h" unicode="&#x3a9;" horiz-adv-x="1449" 
d="M1366 0h-563v383q56 35 92 121t47.5 171.5t11.5 178.5q0 112 -13.5 201t-35.5 146t-52 94.5t-62 53t-68 15.5q-83 0 -139.5 -66.5t-81.5 -178t-25 -263.5q0 -188 47.5 -321t134.5 -166v-369h-573v420h80v-39t3 -38.5t8.5 -41t17.5 -34t29 -30.5t44 -18t62 -8h200v72
q-68 21 -128 51.5t-118 79.5t-99 110.5t-66 146.5t-25 185q0 124 43 233.5t122 191.5t199 129.5t265 47.5q123 0 228.5 -34.5t179 -93.5t125.5 -136t77 -162.5t25 -173.5q0 -203 -120.5 -359t-305.5 -204v-84h188q34 0 61 8t44 18.5t29 30t17.5 34t8.5 41t3.5 39t0.5 38.5
h82v-420z" />
    <glyph glyph-name="pi" unicode="&#x3c0;" horiz-adv-x="954" 
d="M911 231q-48 -256 -159 -256q-59 0 -97.5 19.5t-50.5 46.5q-39 70 -39 254v463h-166v-312q0 -300 -61 -403q-41 -68 -158 -68q-28 0 -53 23.5t-25 62.5q0 65 60 93q48 21 61 96.5t13 241.5v266h-33q-43 0 -65 -27t-32 -96l-65 18q3 150 57 242t138 92h641v-229h-148v-350
q0 -150 16 -205q15 -60 48 -60q24 0 38 30.5t31 94.5z" />
    <glyph glyph-name="endash" unicode="&#x2013;" horiz-adv-x="1024" 
d="M-12 645h1048v-266h-1048v266z" />
    <glyph glyph-name="emdash" unicode="&#x2014;" horiz-adv-x="2048" 
d="M-12 645h2072v-266h-2072v266z" />
    <glyph glyph-name="quoteleft" unicode="&#x2018;" horiz-adv-x="724" 
d="M573 1479v-185q-19 -9 -33 -16.5t-40 -27t-43.5 -42t-35 -60t-24.5 -81.5q81 -19 123.5 -75t42.5 -128q0 -85 -61 -143.5t-144 -58.5q-94 0 -160.5 76.5t-66.5 195.5q0 74 25.5 151t76 152t138.5 139.5t202 102.5z" />
    <glyph glyph-name="quoteright" unicode="&#x2019;" horiz-adv-x="724" 
d="M152 662v184q19 9 33 16.5t40 27t43.5 42t35 60t24.5 81.5q-81 19 -123.5 75t-42.5 128q0 85 61 144t144 59q94 0 160.5 -77t66.5 -196q0 -74 -25.5 -151t-76 -152t-138.5 -139t-202 -102z" />
    <glyph glyph-name="quotesinglbase" unicode="&#x201a;" horiz-adv-x="724" 
d="M150 -446v184q19 9 33 16.5t40 27t43.5 42t35 60t24.5 81.5q-81 19 -123.5 75t-42.5 128q0 85 61 144t144 59q94 0 160.5 -77t66.5 -196q0 -74 -25.5 -151t-76 -152t-138.5 -139t-202 -102z" />
    <glyph glyph-name="quotedblleft" unicode="&#x201c;" horiz-adv-x="1280" 
d="M573 1479v-185q-19 -9 -33 -16.5t-40 -27t-43.5 -42t-35 -60t-24.5 -81.5q81 -19 123.5 -75t42.5 -128q0 -85 -61 -143.5t-144 -58.5q-94 0 -160.5 76.5t-66.5 195.5q0 74 25.5 151t76 152t138.5 139.5t202 102.5zM1130 1479v-185q-19 -9 -33 -16.5t-40 -27t-43.5 -42
t-35 -60t-24.5 -81.5q81 -19 123.5 -75t42.5 -128q0 -85 -61 -143.5t-144 -58.5q-94 0 -160.5 76.5t-66.5 195.5q0 74 25.5 151t76 152t138.5 139.5t202 102.5z" />
    <glyph glyph-name="quotedblright" unicode="&#x201d;" horiz-adv-x="1280" 
d="M707 662v184q19 9 33 16.5t40 27t43.5 42t35 60t24.5 81.5q-81 19 -123.5 75t-42.5 128q0 85 61 144t144 59q94 0 160.5 -77t66.5 -196q0 -74 -25.5 -151t-76 -152t-138.5 -139t-202 -102zM150 662v184q19 9 33 16.5t40 27t43.5 42t35 60t24.5 81.5q-81 19 -123.5 75
t-42.5 128q0 85 61 144t144 59q94 0 160.5 -77t66.5 -196q0 -74 -25.5 -151t-76 -152t-138.5 -139t-202 -102z" />
    <glyph glyph-name="quotedblbase" unicode="&#x201e;" horiz-adv-x="1280" 
d="M707 -446v184q19 9 33 16.5t40 27t43.5 42t35 60t24.5 81.5q-81 19 -123.5 75t-42.5 128q0 85 61 144t144 59q94 0 160.5 -77t66.5 -196q0 -74 -25.5 -151t-76 -152t-138.5 -139t-202 -102zM150 -446v184q19 9 33 16.5t40 27t43.5 42t35 60t24.5 81.5q-81 19 -123.5 75
t-42.5 128q0 85 61 144t144 59q94 0 160.5 -77t66.5 -196q0 -74 -25.5 -151t-76 -152t-138.5 -139t-202 -102z" />
    <glyph glyph-name="dagger" unicode="&#x2020;" horiz-adv-x="1216" 
d="M426 1479h365v-162l-25 -367l223 6h160v-319h-160l-223 6l25 -903v-211h-365v211l23 903l-222 -6h-159v319h159l222 -6l-23 367v162z" />
    <glyph glyph-name="daggerdbl" unicode="&#x2021;" horiz-adv-x="1110" 
d="M379 1479h354v-142l-26 -272l190 6h139v-311h-139l-190 8l26 -229v-74l-26 -225l190 6h139v-314h-139l-190 7l26 -275v-135h-354v135l18 275l-184 -7h-139v314h139l184 -6l-18 225v74l18 229l-184 -8h-139v311h139l184 -6l-18 272v142z" />
    <glyph glyph-name="bullet" unicode="&#x2022;" horiz-adv-x="1024" 
d="M844 721q0 -137 -98 -234.5t-234 -97.5q-138 0 -235 97.5t-97 234.5q0 138 97 235t235 97q137 0 234.5 -97t97.5 -235z" />
    <glyph glyph-name="ellipsis" unicode="&#x2026;" horiz-adv-x="2048" 
d="M1024 371q85 0 145 -59t60 -144t-59.5 -145t-145.5 -60q-85 0 -144 60t-59 145q0 84 59.5 143.5t143.5 59.5zM342 371q84 0 143.5 -59.5t59.5 -143.5q0 -85 -59 -145t-144 -60t-145 60t-60 145t60 144t145 59zM1708 371q85 0 145 -59t60 -144t-59.5 -145t-145.5 -60
q-85 0 -144 60t-59 145q0 84 59.5 143.5t143.5 59.5z" />
    <glyph glyph-name="perthousand" unicode="&#x2030;" horiz-adv-x="2752" 
d="M1436 332q0 -113 19.5 -168t72.5 -55q50 0 71 54.5t21 194.5q0 120 -19.5 170t-68.5 50q-53 0 -74.5 -56t-21.5 -190zM1270 1479h289l-897 -1524h-289zM315 1077q0 -112 19.5 -167.5t73.5 -55.5q50 0 71 55t21 195q0 120 -19.5 169.5t-68.5 49.5q-53 0 -75 -56.5
t-22 -189.5zM1165 336q0 397 375 397q81 0 143 -19t100.5 -51t62.5 -80t33 -100t9 -116q0 -38 -1.5 -68.5t-10 -75.5t-22.5 -79t-41.5 -71.5t-65 -61.5t-95.5 -40t-130 -16q-59 0 -107.5 8.5t-96.5 34t-80.5 66.5t-52.5 110t-20 162zM45 1081q0 398 375 398q102 0 172 -28
t107 -81t52 -115t15 -143q0 -38 -1.5 -68t-9.5 -75t-22 -79t-41.5 -71.5t-65 -62t-95.5 -40.5t-130 -16q-60 0 -108.5 9t-96 34t-79.5 66.5t-52 110.5t-20 161zM1985 336q0 397 374 397q81 0 143 -19t100.5 -51t62.5 -80t33 -100t9 -116q0 -38 -1.5 -68.5t-10 -75.5
t-22.5 -79t-41.5 -71.5t-65 -61.5t-95.5 -40t-130 -16q-59 0 -107 8.5t-96 34t-80.5 66.5t-52.5 110t-20 162zM2255 332q0 -113 19.5 -168t72.5 -55q50 0 71 54.5t21 194.5q0 120 -19.5 170t-68.5 50q-53 0 -74.5 -56t-21.5 -190z" />
    <glyph glyph-name="guilsinglleft" unicode="&#x2039;" horiz-adv-x="747" 
d="M346 98l-285 414l285 414h334l-256 -414l256 -414h-334z" />
    <glyph glyph-name="guilsinglright" unicode="&#x203a;" horiz-adv-x="747" 
d="M401 926l285 -414l-285 -414h-333l256 414l-256 414h333z" />
    <glyph glyph-name="fraction" unicode="&#x2044;" horiz-adv-x="405" 
d="M506 1479h291l-897 -1524h-291z" />
    <glyph glyph-name="fraction" unicode="&#x2215;" horiz-adv-x="405" 
d="M506 1479h291l-897 -1524h-291z" />
    <glyph glyph-name="Euro" unicode="&#x20ac;" horiz-adv-x="1253" 
d="M1159 1008h-276q-6 157 -152 157q-180 0 -213 -272h430v-166h-436q0 -69 2 -102h434v-166h-399q63 -164 244 -164q166 0 358 143v-323q-95 -71 -190.5 -109.5t-237.5 -38.5q-102 0 -187 28.5t-144 75t-104 112t-71.5 132.5t-42.5 144h-158v166h138q-2 23 -2 63v39h-136
v166h154q17 88 48 163t80.5 140t113.5 111t150.5 72t187.5 26q137 0 258 -41q55 -19 151 -68v-288z" />
    <glyph glyph-name="litre" unicode="&#x2113;" horiz-adv-x="577" 
d="M664 291q-28 -164 -93.5 -240t-183.5 -76q-124 0 -199 70q-44 41 -68 114t-24 140v45q-6 -11 -21 -28t-34.5 -38t-26.5 -30l-51 80q6 7 38 39t56.5 59t38.5 47v436q0 104 23.5 201t67 175.5t115 125.5t159.5 47q196 0 196 -209q0 -218 -120 -448q-58 -105 -95 -154v-358
q0 -154 50 -154q27 0 44 42.5t33 139.5zM563 1237h-2q0 115 -51 115q-36 0 -52 -62.5t-16 -195.5v-273q4 10 23 50.5t29 62.5q27 61 48 153t21 150z" />
    <glyph glyph-name="trademark" unicode="&#x2122;" horiz-adv-x="1941" 
d="M-12 1479h800v-195h-284v-620h-236v620h-280v195zM881 1479h356l113 -447h4l116 447h347v-815h-222v575h-4l-149 -575h-185l-147 575h-4v-575h-225v815z" />
    <glyph glyph-name="Omega" unicode="&#x2126;" horiz-adv-x="1449" 
d="M1366 0h-563v383q56 35 92 121t47.5 171.5t11.5 178.5q0 112 -13.5 201t-35.5 146t-52 94.5t-62 53t-68 15.5q-83 0 -139.5 -66.5t-81.5 -178t-25 -263.5q0 -188 47.5 -321t134.5 -166v-369h-573v420h80v-39t3 -38.5t8.5 -41t17.5 -34t29 -30.5t44 -18t62 -8h200v72
q-68 21 -128 51.5t-118 79.5t-99 110.5t-66 146.5t-25 185q0 124 43 233.5t122 191.5t199 129.5t265 47.5q123 0 228.5 -34.5t179 -93.5t125.5 -136t77 -162.5t25 -173.5q0 -203 -120.5 -359t-305.5 -204v-84h188q34 0 61 8t44 18.5t29 30t17.5 34t8.5 41t3.5 39t0.5 38.5
h82v-420z" />
    <glyph glyph-name="estimated" unicode="&#x212e;" horiz-adv-x="1210" 
d="M1133 530h-824v-383q118 -118 293 -118q124 0 229 64.5t175 185.5l55 -31q-95 -137 -201.5 -205t-257.5 -68q-158 0 -277.5 74.5t-181 200t-61.5 280.5q0 156 61 282t180 200.5t277 74.5q161 0 281 -74.5t182 -198.5t70 -284zM893 588v321q-122 125 -295 125
q-168 0 -289 -121v-325h584z" />
    <glyph glyph-name="partialdiff" unicode="&#x2202;" horiz-adv-x="983" 
d="M938 1026q0 -107 -35 -270t-76 -264q-63 -154 -121.5 -256t-117 -159t-114 -79.5t-122.5 -22.5q-148 0 -231.5 101t-83.5 297q0 154 59.5 286t170.5 213.5t249 81.5q98 0 154 -50t78 -116h2q6 49 6 154q0 41 -7.5 86.5t-25.5 94t-45 86.5t-69.5 62.5t-94.5 24.5
q-135 0 -240 -118l-41 51q152 262 396 262q85 0 145.5 -33t96 -96.5t51.5 -146t16 -189.5zM735 676q-7 31 -14 53.5t-21 49t-37.5 41t-54.5 14.5q-63 0 -119 -73t-89 -197.5t-33 -268.5q0 -92 31 -142.5t75 -50.5q47 0 90.5 52.5t76 138.5t56.5 183.5t39 199.5z" />
    <glyph glyph-name="product" unicode="&#x220f;" horiz-adv-x="1267" 
d="M1243 -268h-520v110h25q26 0 43.5 14t25 40.5t10 52.5t2.5 63v1278h-393v-1278q0 -38 2 -63t9.5 -52.5t23.5 -41t41 -13.5h27v-110h-514v110h24q26 0 43.5 13.5t24.5 41t9.5 52.5t2.5 63v1182q0 73 -14 101t-64 28h-26v111h1218v-111h-24q-53 0 -67.5 -28t-14.5 -101
v-1182q0 -38 2.5 -64t10 -52.5t24.5 -40t43 -13.5h26v-110z" />
    <glyph glyph-name="summation" unicode="&#x2211;" horiz-adv-x="1007" 
d="M965 123l-25 -391h-897l-2 80l391 723l-377 819v80h858l17 -326h-66q-7 89 -20 130.5t-37 56t-74 14.5h-373l304 -629l-398 -709h492q78 0 102.5 29.5t36.5 130.5z" />
    <glyph glyph-name="minus" unicode="&#x2212;" 
d="M109 856h1148v-326h-1148v326z" />
    <glyph glyph-name="radical" unicode="&#x221a;" horiz-adv-x="813" 
d="M858 1493q-37 -253 -111.5 -759t-111.5 -759h-244q-32 100 -95.5 302.5t-94.5 302.5q-62 -46 -95 -66q-15 21 -45.5 64.5t-46.5 64.5q50 36 152.5 109.5t152.5 109.5q31 -101 95.5 -303.5t95.5 -304.5q92 618 180 1239h168z" />
    <glyph glyph-name="infinity" unicode="&#x221e;" horiz-adv-x="1333" 
d="M1270 600q0 -148 -94 -248t-224 -100q-93 0 -173.5 48t-131.5 134h-4q-61 -87 -132 -134.5t-165 -47.5q-41 0 -84 12t-85.5 39.5t-76 66.5t-54.5 98t-21 130q0 81 30.5 148t79 107.5t104 62.5t109.5 22q100 0 175.5 -53t119.5 -129h4q40 71 118 126.5t185 55.5
q131 0 225.5 -99t94.5 -239zM1071 602q0 69 -39 114.5t-104 45.5q-60 0 -101.5 -39.5t-89.5 -124.5q78 -172 189 -172q66 0 105.5 51.5t39.5 124.5zM555 598q-44 79 -87 122.5t-99 43.5q-67 0 -107.5 -51t-40.5 -117q0 -69 42 -119.5t106 -50.5q108 0 186 172z" />
    <glyph glyph-name="integral" unicode="&#x222b;" horiz-adv-x="503" 
d="M522 1407q0 -24 -4.5 -44t-23.5 -39t-50 -19q-46 0 -75 36q-20 23 -50 23q-32 0 -32 -41q0 -25 6.5 -60.5t14 -63t20 -72t18.5 -66.5q21 -78 39 -232t18 -249q0 -371 -30 -539q-39 -226 -72 -305q-64 -168 -184 -168q-58 0 -97.5 34t-39.5 89q0 42 24 72t68 30
q22 0 35.5 -9t29.5 -32q15 -18 45 -18q33 0 33 49q0 22 -12.5 75t-32.5 130.5t-31 130.5q-41 221 -41 454q0 197 21 400q32 259 71 370q33 90 84 138.5t107 48.5q69 0 105 -35t36 -88z" />
    <glyph glyph-name="approxequal" unicode="&#x2248;" horiz-adv-x="1368" 
d="M1245 1282v-326q-63 -50 -103 -77.5t-102.5 -51.5t-124.5 -24q-64 0 -123.5 18.5t-162.5 71.5q-82 40 -127.5 55t-83.5 15q-156 0 -320 -160v330q35 30 58 47.5t69 46t99.5 43t111.5 14.5q64 0 124.5 -19t158.5 -67q150 -72 217 -72q140 0 309 156zM1245 776v-325
q-47 -38 -77 -59.5t-73.5 -46.5t-87.5 -36.5t-92 -11.5q-64 0 -123.5 18.5t-162.5 71.5q-82 40 -127.5 55t-83.5 15q-156 0 -320 -160v330q35 30 58 47.5t69 46t99.5 43t111.5 14.5q64 0 124.5 -19t158.5 -67q148 -71 217 -71q141 0 309 155z" />
    <glyph glyph-name="notequal" unicode="&#x2260;" horiz-adv-x="1376" 
d="M109 1081h602l98 187h356l-98 -187h190v-325h-362l-66 -125h428v-326h-600l-96 -184h-358l96 184h-190v326h362l68 125h-430v325z" />
    <glyph glyph-name="lessequal" unicode="&#x2264;" horiz-adv-x="1368" 
d="M1311 0h-1256v326h1256v-326zM1311 467l-1256 278v394l1256 284v-329l-787 -152l787 -145v-330z" />
    <glyph glyph-name="greaterequal" unicode="&#x2265;" horiz-adv-x="1368" 
d="M1311 0h-1256v326h1256v-326zM1311 745l-1256 -284v327l789 152l-789 145v332l1256 -280v-392z" />
    <glyph glyph-name="lozenge" unicode="&#x25ca;" horiz-adv-x="948" 
d="M805 717q-121 -266 -320 -717h-120q-52 119 -159 357.5t-159 357.5q52 120 159 359.5t159 359.5h120q199 -451 320 -717zM625 717q-85 203 -201 473q-33 -79 -98.5 -236.5t-98.5 -236.5q33 -79 98.5 -236.5t98.5 -236.5q34 79 100.5 236.5t100.5 236.5z" />
    <glyph glyph-name="uni00AD" horiz-adv-x="788" 
d="M61 688h666v-350h-666v350z" />
    <glyph glyph-name="uni03A9" horiz-adv-x="1449" 
d="M1366 0h-563v383q56 35 92 121t47.5 171.5t11.5 178.5q0 112 -13.5 201t-35.5 146t-52 94.5t-62 53t-68 15.5q-83 0 -139.5 -66.5t-81.5 -178t-25 -263.5q0 -188 47.5 -321t134.5 -166v-369h-573v420h80v-39t3 -38.5t8.5 -41t17.5 -34t29 -30.5t44 -18t62 -8h200v72
q-68 21 -128 51.5t-118 79.5t-99 110.5t-66 146.5t-25 185q0 124 43 233.5t122 191.5t199 129.5t265 47.5q123 0 228.5 -34.5t179 -93.5t125.5 -136t77 -162.5t25 -173.5q0 -203 -120.5 -359t-305.5 -204v-84h188q34 0 61 8t44 18.5t29 30t17.5 34t8.5 41t3.5 39t0.5 38.5
h82v-420z" />
    <glyph glyph-name="uni03BC" horiz-adv-x="1343" 
d="M123 1026h403v-498q0 -28 1 -44.5t5 -47t14 -49.5t26.5 -39.5t45 -30.5t66.5 -10q152 0 152 232v487h385v-1026h-361v84h-4q-7 -15 -17.5 -30.5t-29.5 -35t-49 -31.5t-66 -12q-106 0 -164 101h-4v-506h-403v1456z" />
    </font>
</defs>
</svg>
